<svg xmlns="http://www.w3.org/2000/svg" width="21.5" height="23.938" viewBox="0 0 21.5 23.938">
  <g id="icon_equipos" data-name="icon / equipos" transform="translate(-12.547 -6.745)">
    <path id="Trazado_21086" data-name="Trazado 21086" d="M23.3,30.683a.75.75,0,0,1-.269-.05c-3.565-1.37-6.07-3.088-7.443-5.105a10.925,10.925,0,0,1-2.219-5.507c-.242-2.1-.81-8.452-.816-8.516a.75.75,0,0,1,.642-.81,28.016,28.016,0,0,0,9.694-3.828.75.75,0,0,1,.821,0A28.086,28.086,0,0,0,33.4,10.7a.75.75,0,0,1,.642.81c-.006.064-.574,6.411-.816,8.516a10.925,10.925,0,0,1-2.219,5.507c-1.374,2.017-3.878,3.735-7.443,5.105A.75.75,0,0,1,23.3,30.683Zm-9.19-18.616c.155,1.712.558,6.11.749,7.783a9.5,9.5,0,0,0,1.968,4.834C17.99,26.4,20.167,27.89,23.3,29.128c3.13-1.238,5.307-2.733,6.473-4.444a9.5,9.5,0,0,0,1.968-4.834c.192-1.673.594-6.071.749-7.783A29.445,29.445,0,0,1,23.3,8.38,29.445,29.445,0,0,1,14.107,12.067Z" transform="translate(0 0)"/>
    <path id="Trazado_21087" data-name="Trazado 21087" d="M32.336,37.047a.75.75,0,0,1-.293-.059,11.312,11.312,0,0,1-5.027-3.548,7.909,7.909,0,0,1-1.687-4.085c-.135-1.172-.383-3.789-.567-5.779a.75.75,0,0,1,.56-.8,29.45,29.45,0,0,0,6.649-2.739.75.75,0,0,1,.731,0,29.45,29.45,0,0,0,6.649,2.739.75.75,0,0,1,.56.8c-.184,1.989-.432,4.606-.567,5.779a7.91,7.91,0,0,1-1.687,4.085,11.315,11.315,0,0,1-5.028,3.548A.75.75,0,0,1,32.336,37.047ZM26.313,24.064c.174,1.874.385,4.079.505,5.118a6.484,6.484,0,0,0,1.434,3.409,9.691,9.691,0,0,0,4.083,2.889,9.693,9.693,0,0,0,4.083-2.889,6.484,6.484,0,0,0,1.434-3.409c.12-1.04.331-3.245.505-5.118a30.737,30.737,0,0,1-6.023-2.512A30.736,30.736,0,0,1,26.313,24.064Z" transform="translate(-9.039 -9.702)"/>
    <path id="Trazado_21088" data-name="Trazado 21088" d="M46.651,46.248H39.98a.75.75,0,0,1-.75-.75v-2.91a.75.75,0,0,1,1.081-.673l1.139.56L42.7,40.664a.75.75,0,0,1,1.235,0l1.247,1.812,1.139-.56a.75.75,0,0,1,1.081.673V45.5A.75.75,0,0,1,46.651,46.248Zm-5.921-1.5H45.9v-.955l-.639.315a.75.75,0,0,1-.949-.248l-1-1.448-1,1.448a.75.75,0,0,1-.949.248l-.639-.315Z" transform="translate(-20.019 -25.862)"/>
  </g>
</svg>
