<svg xmlns="http://www.w3.org/2000/svg" width="21.5" height="15.5" viewBox="0 0 21.5 15.5">
  <g id="Icon_correo" data-name="Icon / correo" transform="translate(-1.25 -4.25)">
    <path id="Rectángulo_25" data-name="Rectángulo 25" d="M2-.75H18A2.753,2.753,0,0,1,20.75,2V12A2.753,2.753,0,0,1,18,14.75H2A2.753,2.753,0,0,1-.75,12V2A2.753,2.753,0,0,1,2-.75Zm16,14A1.251,1.251,0,0,0,19.25,12V2A1.251,1.251,0,0,0,18,.75H2A1.251,1.251,0,0,0,.75,2V12A1.251,1.251,0,0,0,2,13.25Z" transform="translate(2 5)"/>
    <path id="Trazado_81" data-name="Trazado 81" d="M12.225,15.147a2.732,2.732,0,0,1-1.946-.807L2.05,6.121A.75.75,0,0,1,3.11,5.059l8.23,8.22a1.25,1.25,0,0,0,1.769,0l8-8A.75.75,0,0,1,22.17,6.34l-8,8A2.732,2.732,0,0,1,12.225,15.147Z"/>
  </g>
</svg>
