<svg xmlns="http://www.w3.org/2000/svg" width="19.5" height="18.692" viewBox="0 0 19.5 18.692">
  <g id="icon_deporte" data-name="icon / deporte" transform="translate(-2.16 -2.756)">
    <path id="Elipse_2505" data-name="Elipse 2505" d="M2.106-.75A2.856,2.856,0,1,1-.75,2.106,2.86,2.86,0,0,1,2.106-.75Zm0,4.213A1.356,1.356,0,1,0,.75,2.106,1.358,1.358,0,0,0,2.106,3.463Z" transform="translate(13.468 3.506)"/>
    <path id="Trazado_21091" data-name="Trazado 21091" d="M5.87,12.509a.751.751,0,0,1-.742-.869A5.262,5.262,0,0,1,7.179,8.313a4.236,4.236,0,0,1,3.556-.371,26.329,26.329,0,0,1,3.024,1.1c2.313.955,3.984,1.644,6.85.391a.75.75,0,1,1,.6,1.374c-3.45,1.509-5.672.592-8.024-.379a24.757,24.757,0,0,0-2.856-1.038A2.817,2.817,0,0,0,8,9.571a3.778,3.778,0,0,0-1.387,2.306A.749.749,0,0,1,5.87,12.509Z"/>
    <path id="Trazado_21092" data-name="Trazado 21092" d="M2.91,21.448a.75.75,0,0,1-.509-1.3l9.1-8.4a.75.75,0,0,1,1.055.036l4.032,4.277a1.653,1.653,0,0,1-1.2,2.787H10.525a.75.75,0,0,1,0-1.5h4.856a.143.143,0,0,0,.141-.093.14.14,0,0,0-.029-.165L11.97,13.351l-8.551,7.9A.747.747,0,0,1,2.91,21.448Z"/>
  </g>
</svg>
