<svg xmlns="http://www.w3.org/2000/svg" width="13.435" height="13.435" viewBox="0 0 13.435 13.435">
  <g id="icon_cerrar" data-name="icon / cerrar" transform="translate(-5.282 -5.282)">
    <path id="Línea_5" data-name="Línea 5" d="M16,.75H0A.75.75,0,0,1-.75,0,.75.75,0,0,1,0-.75H16a.75.75,0,0,1,.75.75A.75.75,0,0,1,16,.75Z" transform="translate(6.343 6.343) rotate(45)"/>
    <path id="Línea_6" data-name="Línea 6" d="M0,16.75A.75.75,0,0,1-.75,16V0A.75.75,0,0,1,0-.75.75.75,0,0,1,.75,0V16A.75.75,0,0,1,0,16.75Z" transform="translate(17.657 6.343) rotate(45)"/>
  </g>
</svg>
