<svg xmlns="http://www.w3.org/2000/svg" width="21.5" height="21.5" viewBox="0 0 21.5 21.5">
  <g id="Icon_tenis" data-name="Icon / tenis" transform="translate(-1.25 -1.25)">
    <path id="Elipse_107" data-name="Elipse 107" d="M10-.75A10.75,10.75,0,0,1,17.6,17.6,10.75,10.75,0,0,1,2.4,2.4,10.68,10.68,0,0,1,10-.75Zm0,20A9.25,9.25,0,1,0,.75,10,9.26,9.26,0,0,0,10,19.25Z" transform="translate(2 2)"/>
    <path id="Trazado_352" data-name="Trazado 352" d="M4.93,19.82a.75.75,0,0,1-.53-1.28A9.261,9.261,0,0,0,4.4,5.46.75.75,0,1,1,5.46,4.4,10.68,10.68,0,0,1,8.608,12,10.68,10.68,0,0,1,5.46,19.6.748.748,0,0,1,4.93,19.82Z"/>
    <path id="Trazado_353" data-name="Trazado 353" d="M19.07,19.82a.748.748,0,0,1-.53-.22,10.75,10.75,0,0,1,0-15.2A.75.75,0,0,1,19.6,5.46a9.261,9.261,0,0,0,0,13.08.75.75,0,0,1-.53,1.28Z"/>
  </g>
</svg>
