<svg id="icon_large_admin" data-name="icon large / admin" xmlns="http://www.w3.org/2000/svg" width="96" height="96" viewBox="0 0 96 96">
  <g id="ic-actions-user" transform="translate(21.91 27.187)">
    <path id="Trazado_42" data-name="Trazado 42" d="M56.285,36.313a1.5,1.5,0,0,1-1.446-1.1C51.215,22.018,41.463,13.495,29.994,13.495S8.773,22.018,5.149,35.209a1.5,1.5,0,0,1-2.893-.795A38.646,38.646,0,0,1,6.749,24.03a30.763,30.763,0,0,1,6.572-7.494A27.063,27.063,0,0,1,21.3,12.009a25.7,25.7,0,0,1,17.38,0,27.063,27.063,0,0,1,7.982,4.528,30.763,30.763,0,0,1,6.572,7.494,38.646,38.646,0,0,1,4.494,10.385,1.5,1.5,0,0,1-1.447,1.9Z" transform="translate(-3.702 20.077)" fill="#9da8b1"/>
    <path id="Elipse_20" data-name="Elipse 20" d="M16.012-1.5A17.507,17.507,0,0,1,28.395,28.395,17.512,17.512,0,1,1,9.2-.123,17.4,17.4,0,0,1,16.012-1.5Zm0,32.024A14.512,14.512,0,1,0,1.5,16.012,14.528,14.528,0,0,0,16.012,30.524Z" transform="translate(10.28 0)" fill="#9da8b1"/>
  </g>
  <path id="Elipse_2470" data-name="Elipse 2470" d="M48,3A45.013,45.013,0,0,0,30.485,89.465a45.012,45.012,0,0,0,35.03-82.93A44.715,44.715,0,0,0,48,3m0-3A48,48,0,1,1,0,48,48,48,0,0,1,48,0Z" fill="#9da8b1"/>
</svg>
