<svg xmlns="http://www.w3.org/2000/svg" width="17.258" height="21.5" viewBox="0 0 17.258 21.5">
  <g id="icon_pass" data-name="icon / pass" transform="translate(-330.25 -1054.25)">
    <path id="Rectángulo_16146" data-name="Rectángulo 16146" d="M2-.75H13.758A2.753,2.753,0,0,1,16.508,2v9.333a2.753,2.753,0,0,1-2.75,2.75H2a2.753,2.753,0,0,1-2.75-2.75V2A2.753,2.753,0,0,1,2-.75ZM13.758,12.583a1.251,1.251,0,0,0,1.25-1.25V2A1.251,1.251,0,0,0,13.758.75H2A1.251,1.251,0,0,0,.75,2v9.333A1.251,1.251,0,0,0,2,12.583Z" transform="translate(331 1061.667)"/>
    <path id="Rectángulo_16147" data-name="Rectángulo 16147" d="M2.75-.75H3.917a3.5,3.5,0,0,1,3.5,3.5V6.667a.75.75,0,0,1-.75.75H0a.75.75,0,0,1-.75-.75V2.75A3.5,3.5,0,0,1,2.75-.75ZM5.917,5.917V2.75a2,2,0,0,0-2-2H2.75a2,2,0,0,0-2,2V5.917Z" transform="translate(335.444 1055)"/>
    <path id="Línea_2168" data-name="Línea 2168" d="M0,3.75A.75.75,0,0,1-.75,3V0A.75.75,0,0,1,0-.75.75.75,0,0,1,.75,0V3A.75.75,0,0,1,0,3.75Z" transform="translate(338.778 1066.5)"/>
  </g>
</svg>
