<svg xmlns="http://www.w3.org/2000/svg" width="22" height="22" viewBox="0 0 22 22">
  <g id="Icon_check-simple" data-name="Icon / check-simple" transform="translate(-1 -1)">
    <path id="Trazado_8" data-name="Trazado 8" d="M9.56,16.79a.748.748,0,0,1-.53-.219l-4.41-4.4A.75.75,0,0,1,5.68,11.109L9.6,15.016l8.763-7.621a.75.75,0,0,1,.984,1.132l-9.29,8.08A.748.748,0,0,1,9.56,16.79Z"/>
    <path id="Elipse_2471" data-name="Elipse 2471" d="M11,1.5A9.5,9.5,0,1,0,20.5,11,9.511,9.511,0,0,0,11,1.5M11,0A11,11,0,1,1,0,11,11,11,0,0,1,11,0Z" transform="translate(1 1)"/>
  </g>
</svg>
