<svg xmlns="http://www.w3.org/2000/svg" width="21.787" height="21.5" viewBox="0 0 21.787 21.5">
  <g id="icon_futbol" data-name="icon / futbol" transform="translate(-45.145 -212.25)">
    <path id="Polígono_1" data-name="Polígono 1" d="M4,0,8,3.056,6.472,8H1.528L0,3.056Z" transform="translate(52 218.258)" fill="#fff"/>
    <path id="Polígono_1_-_Contorno" data-name="Polígono 1 - Contorno" d="M4,1.888,1.742,3.613,2.634,6.5H5.366l.892-2.887L4,1.888M4,0,8,3.056,6.472,8H1.528L0,3.056Z" transform="translate(52 218.258)"/>
    <path id="Trazado_21110" data-name="Trazado 21110" d="M-2544.25,243.161h-1.5v-3.853l3.94-2.413.783,1.279-3.223,1.974Z" transform="translate(2601 -24.242)"/>
    <path id="Trazado_21112" data-name="Trazado 21112" d="M-2544.25,243.161h-1.5V239.2l5.578-2.02.511,1.41-4.589,1.662Z" transform="translate(1198.494 2510.449) rotate(69)"/>
    <path id="Trazado_21116" data-name="Trazado 21116" d="M-2544.25,243.629h-1.5v-4.222l4.881-2.2.617,1.367-4,1.805Z" transform="translate(-1857.855 1918.517) rotate(144)"/>
    <path id="Trazado_21118" data-name="Trazado 21118" d="M4.131,6.426-.75,4.222V0H.75V3.253l4,1.805Z" transform="matrix(0.809, 0.588, -0.588, 0.809, 54.032, 225.503)"/>
    <path id="Trazado_21114" data-name="Trazado 21114" d="M4.828,5.979-.75,3.959V0H.75V2.907L5.339,4.569Z" transform="translate(52.641 221.628) rotate(111)"/>
    <path id="Trazado_21111" data-name="Trazado 21111" d="M-2545.419,240.372l-3.359-2.266.839-1.244,3.359,2.266Z" transform="translate(2601 -24.242)"/>
    <path id="Trazado_21113" data-name="Trazado 21113" d="M-2545.419,240.372l-3.359-2.266.839-1.244,3.359,2.266Z" transform="translate(1198.494 2510.449) rotate(69)"/>
    <path id="Trazado_21117" data-name="Trazado 21117" d="M-2544.405,240.286l-4.288-2.13.667-1.343,4.288,2.13Z" transform="translate(-1857.18 1917.728) rotate(144)"/>
    <path id="Trazado_21119" data-name="Trazado 21119" d="M.334,2.8-.334,1.459,3.954-.672,4.622.672Z" transform="matrix(0.809, 0.588, -0.588, 0.809, 48.279, 225.987)"/>
    <path id="Trazado_21115" data-name="Trazado 21115" d="M.419,2.887-.419,1.644,2.94-.622,3.779.622Z" transform="translate(50.66 217.27) rotate(111)"/>
    <path id="Elipse_2506" data-name="Elipse 2506" d="M10-.75A10.75,10.75,0,0,1,17.6,17.6,10.75,10.75,0,0,1,2.4,2.4,10.68,10.68,0,0,1,10-.75Zm0,20A9.25,9.25,0,1,0,.75,10,9.26,9.26,0,0,0,10,19.25Z" transform="translate(46 213)"/>
  </g>
</svg>
