<svg xmlns="http://www.w3.org/2000/svg" width="9.5" height="15.5" viewBox="0 0 9.5 15.5">
  <g id="icon_dragable" data-name="icon / dragable" transform="translate(-172.25 -1101.25)">
    <path id="Elipse_2491" data-name="Elipse 2491" d="M1-.75A1.75,1.75,0,1,1-.75,1,1.752,1.752,0,0,1,1-.75Zm0,2A.25.25,0,1,0,.75,1,.25.25,0,0,0,1,1.25Z" transform="translate(173 1102)"/>
    <path id="Elipse_2492" data-name="Elipse 2492" d="M1-.75A1.75,1.75,0,1,1-.75,1,1.752,1.752,0,0,1,1-.75Zm0,2A.25.25,0,1,0,.75,1,.25.25,0,0,0,1,1.25Z" transform="translate(173 1108)"/>
    <path id="Elipse_2493" data-name="Elipse 2493" d="M1-.75A1.75,1.75,0,1,1-.75,1,1.752,1.752,0,0,1,1-.75Zm0,2A.25.25,0,1,0,.75,1,.25.25,0,0,0,1,1.25Z" transform="translate(173 1114)"/>
    <path id="Elipse_2494" data-name="Elipse 2494" d="M1-.75A1.75,1.75,0,1,1-.75,1,1.752,1.752,0,0,1,1-.75Zm0,2A.25.25,0,1,0,.75,1,.25.25,0,0,0,1,1.25Z" transform="translate(179 1102)"/>
    <path id="Elipse_2495" data-name="Elipse 2495" d="M1-.75A1.75,1.75,0,1,1-.75,1,1.752,1.752,0,0,1,1-.75Zm0,2A.25.25,0,1,0,.75,1,.25.25,0,0,0,1,1.25Z" transform="translate(179 1108)"/>
    <path id="Elipse_2496" data-name="Elipse 2496" d="M1-.75A1.75,1.75,0,1,1-.75,1,1.752,1.752,0,0,1,1-.75Zm0,2A.25.25,0,1,0,.75,1,.25.25,0,0,0,1,1.25Z" transform="translate(179 1114)"/>
  </g>
</svg>
