<svg xmlns="http://www.w3.org/2000/svg" width="18.26" height="18.4" viewBox="0 0 18.26 18.4">
  <g id="Icon_buscar" data-name="Icon / buscar" transform="translate(0.75 0.75)">
    <path id="Elipse_12" data-name="Elipse 12" d="M7-.75A7.75,7.75,0,1,1-.75,7,7.759,7.759,0,0,1,7-.75Zm0,14A6.25,6.25,0,1,0,.75,7,6.257,6.257,0,0,0,7,13.25Z" transform="translate(0 0)"/>
    <path id="Línea_50" data-name="Línea 50" d="M4.88,5.63a.748.748,0,0,1-.53-.22L-.53.53A.75.75,0,0,1-.53-.53.75.75,0,0,1,.53-.53L5.41,4.35a.75.75,0,0,1-.53,1.28Z" transform="translate(11.88 12.02)"/>
  </g>
</svg>
