<svg xmlns="http://www.w3.org/2000/svg" width="96.406" height="107.792" viewBox="0 0 96.406 107.792">
  <g id="icon_large_equipos" data-name="icon large / equipos" transform="translate(-11.797 -5.995)">
    <path id="Trazado_21086" data-name="Trazado 21086" d="M60,113.787a1.5,1.5,0,0,1-.538-.1c-16.264-6.25-27.644-14.022-33.826-23.1-7.258-10.661-9.124-16.949-10.027-24.822-1.125-9.806-3.779-39.422-3.806-39.72a1.5,1.5,0,0,1,1.285-1.619C25.111,22.734,37.005,17.878,44.866,14.1A138.806,138.806,0,0,0,59.179,6.24a1.5,1.5,0,0,1,1.643,0,139.231,139.231,0,0,0,14.357,7.884c7.85,3.767,19.727,8.612,31.734,10.3a1.5,1.5,0,0,1,1.285,1.619c-.027.3-2.681,29.914-3.806,39.72-.9,7.874-2.769,14.161-10.027,24.822-6.181,9.078-17.562,16.85-33.826,23.1A1.5,1.5,0,0,1,60,113.787Zm-45.082-86.6c.543,6.025,2.692,29.7,3.672,38.239.849,7.4,2.619,13.329,9.527,23.476C33.88,97.364,44.606,104.69,60,110.679,75.394,104.69,86.12,97.364,91.884,88.9c6.908-10.147,8.678-16.079,9.527-23.476.98-8.539,3.128-32.214,3.672-38.239a97.684,97.684,0,0,1-16.138-4.135,140.26,140.26,0,0,1-15.108-6.241A147.263,147.263,0,0,1,60,9.272a147.263,147.263,0,0,1-13.836,7.535,140.26,140.26,0,0,1-15.108,6.241A97.684,97.684,0,0,1,14.918,27.184Z" fill="#9da8b1"/>
    <path id="Trazado_21087" data-name="Trazado 21087" d="M60,101.557a1.5,1.5,0,0,1-.589-.12,82.094,82.094,0,0,1-14.888-8.051,37.279,37.279,0,0,1-9.514-9.18,54.756,54.756,0,0,1-6.266-11.377,33.1,33.1,0,0,1-1.869-8.356c-.681-5.938-1.931-19.235-2.86-29.345a1.5,1.5,0,0,1,1.117-1.589c14.5-3.765,27.61-10.482,34.134-14.151a1.5,1.5,0,0,1,1.471,0c6.524,3.669,19.633,10.385,34.134,14.151a1.5,1.5,0,0,1,1.117,1.589c-.928,10.106-2.177,23.4-2.858,29.345a33.1,33.1,0,0,1-1.87,8.357,54.764,54.764,0,0,1-6.266,11.377,37.29,37.29,0,0,1-9.515,9.18,82.1,82.1,0,0,1-14.888,8.051A1.5,1.5,0,0,1,60,101.557ZM27.118,36.115c.913,9.913,2.086,22.349,2.737,28.016.581,5.054,1.468,9.331,7.635,18.387C41.375,88.225,49.152,93.719,60,98.424c10.848-4.705,18.625-10.2,22.512-15.906,6.167-9.056,7.054-13.333,7.635-18.387.65-5.673,1.823-18.106,2.735-28.016A136.556,136.556,0,0,1,74,29.356c-4.739-2.078-9.443-4.412-14-6.941-4.553,2.53-9.257,4.863-14,6.941A136.537,136.537,0,0,1,27.118,36.115Z" fill="#9da8b1"/>
    <path id="Línea_2175" data-name="Línea 2175" d="M40.04,1.5H0A1.5,1.5,0,0,1-1.5,0,1.5,1.5,0,0,1,0-1.5H40.04A1.5,1.5,0,0,1,41.54,0,1.5,1.5,0,0,1,40.04,1.5Z" transform="translate(39.98 74.98)" fill="#9da8b1"/>
    <path id="Trazado_21088" data-name="Trazado 21088" d="M80.02,69.054H39.98a1.5,1.5,0,0,1-1.5-1.5V50.089a1.5,1.5,0,0,1,2.162-1.346l9.164,4.507,8.958-13.012a1.5,1.5,0,0,1,2.471,0L70.194,53.25l9.164-4.507a1.5,1.5,0,0,1,2.162,1.346V67.554A1.5,1.5,0,0,1,80.02,69.054Zm-38.54-3H78.52V52.5l-8.165,4.016a1.5,1.5,0,0,1-1.9-.5L60,43.734,51.542,56.019a1.5,1.5,0,0,1-1.9.5L41.48,52.5Z" fill="#9da8b1"/>
    <path id="Elipse_2502" data-name="Elipse 2502" d="M1.406-1.5A2.906,2.906,0,1,1-1.5,1.406,2.909,2.909,0,0,1,1.406-1.5Z" transform="translate(58.594 29.584)" fill="#9da8b1"/>
    <path id="Elipse_2503" data-name="Elipse 2503" d="M1.406-1.5A2.906,2.906,0,1,1-1.5,1.406,2.909,2.909,0,0,1,1.406-1.5Z" transform="translate(58.594 85.842)" fill="#9da8b1"/>
  </g>
</svg>
