<svg xmlns="http://www.w3.org/2000/svg" width="96.074" height="103.437" viewBox="0 0 96.074 103.437">
  <g id="icon_large_producto" data-name="icon large / producto" transform="translate(-1.5 -0.788)">
    <path id="Trazado_21103" data-name="Trazado 21103" d="M49.537.788a11.87,11.87,0,0,1,5.749,1.489L94.144,23.861a6.675,6.675,0,0,1,3.429,5.831V72.272a11.846,11.846,0,0,1-6.09,10.348l-36.2,20.115a11.842,11.842,0,0,1-11.5,0L7.592,82.622A11.849,11.849,0,0,1,1.5,72.279V29.691a6.675,6.675,0,0,1,3.429-5.83L43.713,2.322l.075-.044A11.87,11.87,0,0,1,49.537.788Zm0,100.437a8.863,8.863,0,0,0,4.293-1.112L90.027,80a8.844,8.844,0,0,0,4.547-7.726V29.691a3.673,3.673,0,0,0-1.887-3.208L53.829,4.9a8.842,8.842,0,0,0-8.511-.041L45.25,4.9,6.386,26.483A3.673,3.673,0,0,0,4.5,29.691V72.278A8.847,8.847,0,0,0,9.049,80l36.2,20.114A8.863,8.863,0,0,0,49.537,101.226Z" fill="#9da8b1"/>
    <path id="Trazado_21104" data-name="Trazado 21104" d="M54.037,49.952a1.5,1.5,0,0,1-1.5-1.5V31.236L6.772,5.811A1.5,1.5,0,0,1,8.228,3.189L54.765,29.043a1.5,1.5,0,0,1,.772,1.311v18.1A1.5,1.5,0,0,1,54.037,49.952Z" transform="translate(18.768 9.224)" fill="#9da8b1"/>
    <path id="Trazado_21109" data-name="Trazado 21109" d="M52.768,31.149a1.5,1.5,0,0,1-.728-.189L6.772,5.811A1.5,1.5,0,0,1,8.228,3.189l44.54,24.745L97.211,3.27a1.5,1.5,0,1,1,1.456,2.623L53.5,30.961A1.5,1.5,0,0,1,52.768,31.149Z" transform="translate(-3.232 23.224)" fill="#9da8b1"/>
    <path id="Trazado_21105" data-name="Trazado 21105" d="M21.511,22.474a1.493,1.493,0,0,1-.729-.19L5.27,13.638a1.5,1.5,0,0,1,1.46-2.62l15.512,8.646a1.5,1.5,0,0,1-.732,2.811Z" transform="translate(12.512 41.873)" fill="#9da8b1"/>
    <path id="Trazado_21106" data-name="Trazado 21106" d="M51.037,84.562h-3V32.854h3Z" transform="translate(0 19.651)" fill="#9da8b1"/>
  </g>
</svg>
