<svg xmlns="http://www.w3.org/2000/svg" width="21.503" height="21.518" viewBox="0 0 21.503 21.518">
  <path id="icon_baseball" data-name="icon / baseball" d="M20,1.25a1.79,1.79,0,0,1,1.213.484l.027.026,1,1a1.756,1.756,0,0,1,0,2.481L12.7,14.784l-3.57,2.56L6.452,20.019a1.756,1.756,0,0,1-.218,2.258l-.007.007a1.758,1.758,0,0,1-2.47-.047L1.734,20.213A1.79,1.79,0,0,1,1.25,19,1.731,1.731,0,0,1,3,17.25a1.75,1.75,0,0,1,.978.3l2.678-2.686c2.515-3.515,2.516-3.516,2.6-3.6L18.8,1.721A1.788,1.788,0,0,1,20,1.25Zm.2,1.586A.285.285,0,0,0,20,2.75c-.038,0-.089,0-.2.093L10.342,12.3c-.1.133-.642.888-2.5,3.488l-.036.05L3.992,19.661l-.8-.828A.282.282,0,0,0,3,18.75a.242.242,0,0,0-.25.25.285.285,0,0,0,.086.2l1.991,1.991a.259.259,0,0,0,.189.081A.253.253,0,0,0,5.19,21.2a.269.269,0,0,0-.015-.384l-.835-.807L8.153,16.2l3.57-2.56L21.18,4.18a.257.257,0,0,0,0-.359ZM18.5,12.25a3.25,3.25,0,1,1-3.25,3.25A3.254,3.254,0,0,1,18.5,12.25Zm0,5a1.75,1.75,0,1,0-1.75-1.75A1.752,1.752,0,0,0,18.5,17.25Z" transform="translate(-1.25 -1.25)"/>
</svg>
