<svg xmlns="http://www.w3.org/2000/svg" width="21.5" height="14.637" viewBox="0 0 21.5 14.637">
  <g id="icon_terreno" data-name="icon / terreno" transform="translate(-1.25 -5.25)">
    <path id="Trazado_20995" data-name="Trazado 20995" d="M11.906,4.057a.75.75,0,0,1,.335.079l10,4.984a.75.75,0,0,1,0,1.343l-10,4.984a.75.75,0,0,1-.669,0l-10-4.984a.75.75,0,0,1,0-1.343l10-4.984A.75.75,0,0,1,11.906,4.057Zm8.319,5.734L11.906,5.645,3.587,9.791l8.319,4.146Z" transform="translate(0.094 1.193)"/>
    <path id="Trazado_20996" data-name="Trazado 20996" d="M11.906,18.818a.75.75,0,0,1-.338-.08l-10-5.046a.75.75,0,1,1,.676-1.339l9.662,4.875,9.662-4.875a.75.75,0,1,1,.676,1.339l-10,5.046A.75.75,0,0,1,11.906,18.818Z" transform="translate(0.094 1.07)"/>
  </g>
</svg>
