<svg xmlns="http://www.w3.org/2000/svg" width="17.5" height="17.5" viewBox="0 0 17.5 17.5">
  <g id="icon_añadir" data-name="icon / añadir" transform="translate(-138.25 -648.25)">
    <path id="Línea_5" data-name="Línea 5" d="M16,.75H0A.75.75,0,0,1-.75,0,.75.75,0,0,1,0-.75H16a.75.75,0,0,1,.75.75A.75.75,0,0,1,16,.75Z" transform="translate(139 657)"/>
    <path id="Línea_6" data-name="Línea 6" d="M0,16.75A.75.75,0,0,1-.75,16V0A.75.75,0,0,1,0-.75.75.75,0,0,1,.75,0V16A.75.75,0,0,1,0,16.75Z" transform="translate(147 649)"/>
  </g>
</svg>
