<svg xmlns="http://www.w3.org/2000/svg" width="27.532" height="75.646" viewBox="0 0 27.532 75.646">
  <g id="icon_estadio" data-name="icon / estadio" transform="translate(4.508 54.427)">
    <path id="Elipse_21" data-name="Elipse 21" d="M10-.75a29.5,29.5,0,0,1,7.264.805c2.313.616,3.486,1.493,3.486,2.608S19.577,4.654,17.264,5.27A29.5,29.5,0,0,1,10,6.076,29.5,29.5,0,0,1,2.736,5.27C.423,4.654-.75,3.777-.75,2.663S.423.671,2.736.055A29.5,29.5,0,0,1,10-.75Zm9.249,3.413c-.03-.13-.532-.691-2.525-1.2A28.5,28.5,0,0,0,10,.75a28.5,28.5,0,0,0-6.724.715C1.283,1.972.78,2.533.75,2.663c.03.13.532.691,2.525,1.2A28.5,28.5,0,0,0,10,4.576a28.5,28.5,0,0,0,6.724-.715C18.717,3.354,19.219,2.793,19.249,2.663Z" transform="translate(2.274 8.133)"/>
    <path id="Trazado_20984" data-name="Trazado 20984" d="M16.782,90.076a29.5,29.5,0,0,1-7.264-.805c-2.313-.616-3.486-1.493-3.486-2.608a.75.75,0,0,1,1.5,0c.025.126.522.69,2.526,1.2a28.5,28.5,0,0,0,6.724.715,28.5,28.5,0,0,0,6.724-.715c2.01-.512,2.5-1.078,2.526-1.2a.75.75,0,1,1,1.5,0c0,1.114-1.173,1.992-3.486,2.608A29.506,29.506,0,0,1,16.782,90.076Z" transform="translate(-4.508 -68.857)"/>
    <path id="Trazado_20985" data-name="Trazado 20985" transform="translate(-4.508 -54.427)"/>
    <path id="Línea_1" data-name="Línea 1" d="M0,7.761a.75.75,0,0,1-.75-.75V0A.75.75,0,0,1,0-.75.75.75,0,0,1,.75,0V7.011A.75.75,0,0,1,0,7.761Z" transform="translate(2.274 10.795)"/>
    <path id="Línea_2" data-name="Línea 2" d="M0,7.761a.75.75,0,0,1-.75-.75V0A.75.75,0,0,1,0-.75.75.75,0,0,1,.75,0V7.011A.75.75,0,0,1,0,7.761Z" transform="translate(22.274 10.795)"/>
    <path id="Trazado_20988" data-name="Trazado 20988" d="M56.692,94.26a.75.75,0,0,1-.75-.75V90.641H50.171V93.5a.75.75,0,0,1-1.5,0V89.891a.75.75,0,0,1,.75-.75h7.271a.75.75,0,0,1,.75.75V93.51A.75.75,0,0,1,56.692,94.26Z" transform="translate(-40.782 -73.689)"/>
    <path id="Trazado_20989" data-name="Trazado 20989" d="M54.041,22.576h0l-8.1,0a.75.75,0,0,1-.75-.75v-3.04a.75.75,0,0,1,.75-.75h8.1a.75.75,0,0,1,.75.75v3.044a.75.75,0,0,1-.75.75Zm-7.345-1.5,6.6,0V19.532H46.7Z" transform="translate(-37.719 -13.693)"/>
    <path id="Trazado_20990" data-name="Trazado 20990" d="M95.6,23.248a.75.75,0,0,1-.75-.75V18.782a.75.75,0,0,1,1.192-.606l2.292,1.669A.75.75,0,0,1,97.9,21.2l-1.553.023V22.5A.75.75,0,0,1,95.6,23.248Z" transform="translate(-76.683 -13.693)"/>
    <path id="Trazado_20991" data-name="Trazado 20991" d="M14.777,23.248a.75.75,0,0,1-.75-.75V21.224L12.474,21.2a.75.75,0,0,1-.431-1.356l2.292-1.669a.75.75,0,0,1,1.192.606v1.7s0,0,0,0V22.5A.75.75,0,0,1,14.777,23.248Z" transform="translate(-9.142 -13.693)"/>
  </g>
</svg>
