<svg xmlns="http://www.w3.org/2000/svg" width="18.807" height="18.794" viewBox="0 0 18.807 18.794">
  <g id="Icon_telefono" data-name="Icon / telefono" transform="translate(-2.345 21.507) rotate(-90)">
    <path id="Trazado_89" data-name="Trazado 89" d="M7.57,21.152a2.766,2.766,0,0,1-1.963-.824L3.22,17.94a1.757,1.757,0,0,1-.213-2.208,46.5,46.5,0,0,1,13.1-13.1,1.75,1.75,0,0,1,2.207.226l2.39,2.41a2.75,2.75,0,0,1,0,3.889l-1.342,1.332a2.75,2.75,0,0,1-3.889,0L15,10.015A15.8,15.8,0,0,0,10.42,14.6l.473.478a2.75,2.75,0,0,1,0,3.888L9.533,20.327A2.766,2.766,0,0,1,7.57,21.152Zm9.5-17.307a.249.249,0,0,0-.137.041A45.01,45.01,0,0,0,4.255,16.565a.252.252,0,0,0,.028.318L6.67,19.27l.006.006a1.25,1.25,0,0,0,1.788,0l.006-.006,1.36-1.36a1.25,1.25,0,0,0,0-1.769l-.893-.9a.75.75,0,0,1-.11-.913,17.291,17.291,0,0,1,5.9-5.907.75.75,0,0,1,.92.115l.89.9a1.25,1.25,0,0,0,1.766,0L19.642,8.1a1.25,1.25,0,0,0,0-1.767L17.247,3.918A.249.249,0,0,0,17.07,3.845Z"/>
  </g>
</svg>
