<svg xmlns="http://www.w3.org/2000/svg" width="22" height="22" viewBox="0 0 22 22">
  <g id="icon_usuario" data-name="icon / usuario" transform="translate(-516 -543)">
    <g id="ic-actions-user" transform="translate(517.298 547.224)">
      <path id="Trazado_42" data-name="Trazado 42" d="M15.7,17.952a.75.75,0,0,1-.723-.551c-.943-3.433-3.344-4.656-5.277-4.656S5.369,13.968,4.425,17.4A.75.75,0,1,1,2.979,17,8.269,8.269,0,0,1,5.64,12.715a6.347,6.347,0,0,1,8.124,0A8.269,8.269,0,0,1,16.425,17a.751.751,0,0,1-.724.949Z" transform="translate(0 -2.696)"/>
      <path id="Elipse_20" data-name="Elipse 20" d="M3.654-.75a4.4,4.4,0,1,1-4.4,4.4A4.409,4.409,0,0,1,3.654-.75Zm0,7.308a2.9,2.9,0,1,0-2.9-2.9A2.907,2.907,0,0,0,3.654,6.558Z" transform="translate(6.048 1.98)"/>
    </g>
    <path id="Elipse_2470" data-name="Elipse 2470" d="M11,1.5A9.5,9.5,0,1,0,20.5,11,9.511,9.511,0,0,0,11,1.5M11,0A11,11,0,1,1,0,11,11,11,0,0,1,11,0Z" transform="translate(516 543)"/>
  </g>
</svg>
