<svg xmlns="http://www.w3.org/2000/svg" width="21.5" height="23.082" viewBox="0 0 21.5 23.082">
  <g id="icon_producto" data-name="icon / producto" transform="translate(-2.25 -1.538)">
    <path id="Trazado_21103" data-name="Trazado 21103" d="M13,1.538a2.979,2.979,0,0,1,1.443.374l8.35,4.638a1.862,1.862,0,0,1,.957,1.627v9.15a2.973,2.973,0,0,1-1.529,2.6l-7.778,4.322a2.972,2.972,0,0,1-2.886,0L3.779,19.925a2.974,2.974,0,0,1-1.529-2.6V8.177A1.862,1.862,0,0,1,3.207,6.55l8.326-4.624.025-.014A2.979,2.979,0,0,1,13,1.538Zm0,21.582a1.476,1.476,0,0,0,.715-.185l7.778-4.322a1.473,1.473,0,0,0,.757-1.286V8.177a.361.361,0,0,0-.186-.316l-8.35-4.638a1.472,1.472,0,0,0-1.409-.011l-.02.011L3.935,7.861a.361.361,0,0,0-.185.315v9.151a1.473,1.473,0,0,0,.757,1.285l7.778,4.322A1.476,1.476,0,0,0,13,23.121Z"/>
    <path id="Trazado_21104" data-name="Trazado 21104" d="M17.5,14.694a.75.75,0,0,1-.75-.75V10.5L7.136,5.156a.75.75,0,1,1,.728-1.311l10,5.556a.75.75,0,0,1,.386.656v3.889A.75.75,0,0,1,17.5,14.694Z" transform="translate(0.5 0.246)"/>
    <path id="Trazado_21109" data-name="Trazado 21109" d="M17.227,10.654a.75.75,0,0,1-.364-.094l-9.727-5.4a.75.75,0,1,1,.728-1.311l9.363,5.2L26.57,3.862A.75.75,0,1,1,27.3,5.173L17.591,10.56A.75.75,0,0,1,17.227,10.654Z" transform="translate(-4.227 3.254)"/>
    <path id="Trazado_21105" data-name="Trazado 21105" d="M9.333,14.936a.747.747,0,0,1-.364-.1L5.635,12.983a.75.75,0,1,1,.73-1.31L9.7,13.531a.75.75,0,0,1-.366,1.405Z" transform="translate(0.333 1.116)"/>
    <path id="Trazado_21106" data-name="Trazado 21106" d="M50.287,43.965h-1.5V32.854h1.5Z" transform="translate(-36.537 -19.775)"/>
  </g>
</svg>
