<svg xmlns="http://www.w3.org/2000/svg" width="21.5" height="21.502" viewBox="0 0 21.5 21.502">
  <g id="Icon_camiseta" data-name="Icon / camiseta" transform="translate(-1.25 -1.248)">
    <path id="Trazado_346" data-name="Trazado 346" d="M16.121,1.248a.965.965,0,0,1,.134.009l.028,0,5.673,1.019a.954.954,0,0,1,.794.941v6a.75.75,0,0,1-.013.141.936.936,0,0,1-.627.71l-2.36.864V20A2.753,2.753,0,0,1,17,22.75H7A2.753,2.753,0,0,1,4.25,20V10.962L1.888,10.1a.928.928,0,0,1-.638-.9V3.225a.944.944,0,0,1,.8-.965l5.674-1,.04-.006a.96.96,0,0,1,.994.567L9.818,4.069a2.415,2.415,0,0,0,4.365,0L15.25,1.8A.963.963,0,0,1,16.121,1.248ZM12,6.95A3.939,3.939,0,0,1,8.463,4.712l-.9-1.9L2.75,3.659V8.818l2.377.868.028.011a.96.96,0,0,1,.594.869q0,.008,0,.015V20A1.251,1.251,0,0,0,7,21.25H17A1.251,1.251,0,0,0,18.25,20V10.56q0-.008,0-.017a.967.967,0,0,1,.617-.882l.015-.006,2.368-.867V3.678l-4.817-.865-.894,1.9A3.939,3.939,0,0,1,12,6.95Z"/>
  </g>
</svg>
