<svg xmlns="http://www.w3.org/2000/svg" width="22.873" height="15.476" viewBox="0 0 22.873 15.476">
  <g id="Icon_futbol_americano" data-name="Icon / futbol americano" transform="translate(-0.563 -4.262)">
    <path id="Trazado_357" data-name="Trazado 357" d="M12,19.738A12.81,12.81,0,0,1,.932,13.378a2.759,2.759,0,0,1,0-2.753,12.81,12.81,0,0,1,22.138,0,2.759,2.759,0,0,1,0,2.753A12.81,12.81,0,0,1,12,19.738ZM12,5.762a11.348,11.348,0,0,0-9.772,5.616,1.252,1.252,0,0,0,0,1.247,11.31,11.31,0,0,0,19.542,0,1.252,1.252,0,0,0,0-1.247A11.346,11.346,0,0,0,12,5.762Z"/>
    <path id="Línea_460" data-name="Línea 460" d="M20,.75H0A.75.75,0,0,1-.75,0,.75.75,0,0,1,0-.75H20a.75.75,0,0,1,.75.75A.75.75,0,0,1,20,.75Z" transform="translate(2 12)"/>
    <path id="Línea_461" data-name="Línea 461" d="M0,12.61a.75.75,0,0,1-.75-.75V0A.75.75,0,0,1,0-.75.75.75,0,0,1,.75,0V11.86A.75.75,0,0,1,0,12.61Z" transform="translate(7 6.07)"/>
    <path id="Línea_462" data-name="Línea 462" d="M0,12.61a.75.75,0,0,1-.75-.75V0A.75.75,0,0,1,0-.75.75.75,0,0,1,.75,0V11.86A.75.75,0,0,1,0,12.61Z" transform="translate(17 6.07)"/>
    <path id="Línea_463" data-name="Línea 463" d="M0,4.75A.75.75,0,0,1-.75,4V0A.75.75,0,0,1,0-.75.75.75,0,0,1,.75,0V4A.75.75,0,0,1,0,4.75Z" transform="translate(14 10)"/>
    <path id="Línea_464" data-name="Línea 464" d="M0,4.75A.75.75,0,0,1-.75,4V0A.75.75,0,0,1,0-.75.75.75,0,0,1,.75,0V4A.75.75,0,0,1,0,4.75Z" transform="translate(10 10)"/>
  </g>
</svg>
