<svg xmlns="http://www.w3.org/2000/svg" width="13.515" height="21.5" viewBox="0 0 13.515 21.5">
  <g id="icon_termo" data-name="icon / termo" transform="translate(-5.243 -1.25)">
    <path id="Trazado_351" data-name="Trazado 351" d="M10.29,1.25h3.42l.062,0A2.642,2.642,0,0,1,16.18,4.023V7.378a3.563,3.563,0,0,1,2.57,3.647V21.786a.938.938,0,0,1-.842.96.752.752,0,0,1-.078,0H6.17a.752.752,0,0,1-.078,0,.938.938,0,0,1-.842-.96V11.025A3.563,3.563,0,0,1,7.82,7.378V4.023a2.642,2.642,0,0,1,2.408-2.771Zm3.385,1.5h-3.35a1.135,1.135,0,0,0-1.007,1.2q0,.025,0,.05V8a.75.75,0,0,1-.688.747,2.067,2.067,0,0,0-1.884,2.2q0,.027,0,.053V21.25h10.5V11q0-.027,0-.053a2.067,2.067,0,0,0-1.884-2.2A.75.75,0,0,1,14.68,8V4q0-.025,0-.05A1.135,1.135,0,0,0,13.675,2.75Z"/>
    <path id="Línea_454" data-name="Línea 454" d="M6.86.75H0A.75.75,0,0,1-.75,0,.75.75,0,0,1,0-.75H6.86A.75.75,0,0,1,7.61,0,.75.75,0,0,1,6.86.75Z" transform="translate(8.57 6)"/>
  </g>
</svg>
