<svg xmlns="http://www.w3.org/2000/svg" width="17.5" height="21.5" viewBox="0 0 17.5 21.5">
  <g id="Icon_archivo" data-name="Icon / archivo" transform="translate(-3.25 -1.25)">
    <path id="Trazado_18" data-name="Trazado 18" d="M6,1.25h8.869A1.753,1.753,0,0,1,16.286,2l4.144,5.912a1.7,1.7,0,0,1,.319,1.011V20A2.753,2.753,0,0,1,18,22.75H6A2.753,2.753,0,0,1,3.25,20V4A2.753,2.753,0,0,1,6,1.25Zm8.854,1.5H6A1.251,1.251,0,0,0,4.75,4V20A1.251,1.251,0,0,0,6,21.25H18A1.251,1.251,0,0,0,19.25,20V8.907a.191.191,0,0,0-.036-.115l-.008-.011-4.15-5.92A.252.252,0,0,0,14.854,2.75Z"/>
  </g>
</svg>
