<svg xmlns="http://www.w3.org/2000/svg" width="21.5" height="21.5" viewBox="0 0 21.5 21.5">
  <g id="Icon_basket" data-name="Icon / basket" transform="translate(-1.25 -1.25)">
    <path id="Elipse_106" data-name="Elipse 106" d="M10-.75A10.75,10.75,0,0,1,17.6,17.6,10.75,10.75,0,0,1,2.4,2.4,10.68,10.68,0,0,1,10-.75Zm0,20A9.25,9.25,0,1,0,.75,10,9.26,9.26,0,0,0,10,19.25Z" transform="translate(2 2)"/>
    <path id="Línea_452" data-name="Línea 452" d="M14,14.75a.748.748,0,0,1-.53-.22l-14-14A.75.75,0,0,1-.53-.53.75.75,0,0,1,.53-.53l14,14A.75.75,0,0,1,14,14.75Z" transform="translate(5 5)"/>
    <path id="Línea_453" data-name="Línea 453" d="M0,14.75a.748.748,0,0,1-.53-.22.75.75,0,0,1,0-1.061l14-14a.75.75,0,0,1,1.061,0,.75.75,0,0,1,0,1.061l-14,14A.748.748,0,0,1,0,14.75Z" transform="translate(5 5)"/>
    <path id="Trazado_349" data-name="Trazado 349" d="M2,12.75a.75.75,0,0,1,0-1.5A9.26,9.26,0,0,0,11.25,2a.75.75,0,0,1,1.5,0A10.68,10.68,0,0,1,9.6,9.6,10.68,10.68,0,0,1,2,12.75Z"/>
    <path id="Trazado_350" data-name="Trazado 350" d="M12,22.75a.75.75,0,0,1-.75-.75A10.75,10.75,0,0,1,22,11.25a.75.75,0,0,1,0,1.5A9.25,9.25,0,0,0,12.75,22,.75.75,0,0,1,12,22.75Z"/>
  </g>
</svg>
