<svg id="icon_large_Estadio" data-name="icon large / Estadio" xmlns="http://www.w3.org/2000/svg" width="115.035" height="102.376" viewBox="0 0 115.035 102.376">
  <path id="Elipse_21" data-name="Elipse 21" d="M53.376-1.5C67.76-1.5,81.3,0,91.5,2.713c7.64,2.034,16.748,5.681,16.748,11.5s-9.107,9.465-16.748,11.5c-10.2,2.717-23.745,4.213-38.129,4.213s-27.925-1.5-38.129-4.213C7.607,23.678-1.5,20.032-1.5,14.213s9.107-9.465,16.748-11.5C25.451,0,38.992-1.5,53.376-1.5Zm0,28.426c14.131,0,27.4-1.46,37.357-4.112a41.789,41.789,0,0,0,11.026-4.338c1.594-1,3.494-2.557,3.494-4.263s-1.9-3.26-3.494-4.263A41.789,41.789,0,0,0,90.733,5.612C80.774,2.96,67.507,1.5,53.376,1.5S25.979,2.96,16.02,5.612A41.789,41.789,0,0,0,4.994,9.95C3.4,10.953,1.5,12.507,1.5,14.213s1.9,3.26,3.494,4.263A41.789,41.789,0,0,0,16.02,22.813C25.979,25.465,39.246,26.926,53.376,26.926Z" transform="translate(6.782 35.03)" fill="#9da8b1"/>
  <path id="Trazado_20984" data-name="Trazado 20984" d="M60.158,102.376c-14.384,0-27.925-1.5-38.128-4.213-7.64-2.034-16.748-5.681-16.748-11.5a1.5,1.5,0,0,1,3,0c0,1.706,1.9,3.26,3.494,4.263A41.79,41.79,0,0,0,22.8,95.264c9.959,2.652,23.226,4.112,37.356,4.112s27.4-1.46,37.357-4.112a41.79,41.79,0,0,0,11.026-4.338c1.594-1,3.494-2.558,3.494-4.263a1.5,1.5,0,0,1,3,0c0,5.819-9.108,9.465-16.748,11.5C88.083,100.88,74.542,102.376,60.158,102.376Z" fill="#9da8b1"/>
  <path id="Trazado_20985" data-name="Trazado 20985" fill="#9da8b1"/>
  <path id="Trazado_20986" data-name="Trazado 20986" d="M98.7,60.573a1.5,1.5,0,0,1-.4-.055c-10.04-2.789-23.585-4.325-38.141-4.325s-28.1,1.536-38.14,4.325a1.5,1.5,0,0,1-.8-2.891,116.051,116.051,0,0,1,17.461-3.247,187.265,187.265,0,0,1,21.481-1.188,187.294,187.294,0,0,1,21.483,1.188A116.028,116.028,0,0,1,99.1,57.628a1.5,1.5,0,0,1-.4,2.946Z" fill="#9da8b1"/>
  <path id="Trazado_20987" data-name="Trazado 20987" d="M60.158,84.619c-14.383,0-27.924-1.5-38.128-4.214-7.64-2.034-16.748-5.681-16.748-11.5a1.5,1.5,0,0,1,3,0c0,1.705,1.9,3.259,3.494,4.263A41.793,41.793,0,0,0,22.8,77.506c9.959,2.652,23.226,4.113,37.356,4.113s27.4-1.461,37.357-4.113a41.793,41.793,0,0,0,11.026-4.338c1.594-1,3.494-2.557,3.494-4.263a1.5,1.5,0,0,1,3,0c0,5.818-9.108,9.465-16.748,11.5C88.083,83.123,74.542,84.619,60.158,84.619Z" fill="#9da8b1"/>
  <path id="Línea_1" data-name="Línea 1" d="M0,38.921a1.5,1.5,0,0,1-1.5-1.5V0A1.5,1.5,0,0,1,0-1.5,1.5,1.5,0,0,1,1.5,0V37.421A1.5,1.5,0,0,1,0,38.921Z" transform="translate(6.782 49.243)" fill="#9da8b1"/>
  <path id="Línea_2" data-name="Línea 2" d="M0,38.921a1.5,1.5,0,0,1-1.5-1.5V0A1.5,1.5,0,0,1,0-1.5,1.5,1.5,0,0,1,1.5,0V37.421A1.5,1.5,0,0,1,0,38.921Z" transform="translate(113.535 49.243)" fill="#9da8b1"/>
  <path id="Línea_3" data-name="Línea 3" d="M0,14.034a1.5,1.5,0,0,1-1.5-1.5V0A1.5,1.5,0,0,1,0-1.5,1.5,1.5,0,0,1,1.5,0V12.534A1.5,1.5,0,0,1,0,14.034Z" transform="translate(60.158 42.158)" fill="#9da8b1"/>
  <path id="Línea_4" data-name="Línea 4" d="M0,11.695a1.5,1.5,0,0,1-1.065-.443A1.5,1.5,0,0,1-1.057,9.13L9.218-1.065a1.5,1.5,0,0,1,2.121.008,1.5,1.5,0,0,1-.008,2.121L1.057,11.259A1.5,1.5,0,0,1,0,11.695Z" transform="translate(82.112 45.752)" fill="#9da8b1"/>
  <path id="Línea_5" data-name="Línea 5" d="M10.274,11.695a1.5,1.5,0,0,1-1.056-.435L-1.057,1.065a1.5,1.5,0,0,1-.008-2.121,1.5,1.5,0,0,1,2.121-.008L11.331,9.13a1.5,1.5,0,0,1-1.057,2.565Z" transform="translate(27.931 45.752)" fill="#9da8b1"/>
  <path id="Trazado_20988" data-name="Trazado 20988" d="M70.9,102.079a1.5,1.5,0,0,1-1.5-1.5V91.391H50.921v9.173a1.5,1.5,0,0,1-3,0V89.891a1.5,1.5,0,0,1,1.5-1.5H70.9a1.5,1.5,0,0,1,1.5,1.5v10.688A1.5,1.5,0,0,1,70.9,102.079Z" fill="#9da8b1"/>
  <path id="Trazado_20989" data-name="Trazado 20989" d="M74.371,30.97h0l-28.426-.015a1.5,1.5,0,0,1-1.5-1.5V18.782a1.5,1.5,0,0,1,1.5-1.5H74.371a1.5,1.5,0,0,1,1.5,1.5V29.47a1.5,1.5,0,0,1-1.5,1.5ZM47.446,27.956l25.426.013V20.282H47.446Z" fill="#9da8b1"/>
  <path id="Línea_6" data-name="Línea 6" d="M0,8.139a1.5,1.5,0,0,1-1.5-1.5V0A1.5,1.5,0,0,1,0-1.5,1.5,1.5,0,0,1,1.5,0V6.639A1.5,1.5,0,0,1,0,8.139Z" transform="translate(60 70.718)" fill="#9da8b1"/>
  <path id="Línea_7" data-name="Línea 7" d="M0,7.047a1.5,1.5,0,0,1-1.5-1.5V0A1.5,1.5,0,0,1,0-1.5,1.5,1.5,0,0,1,1.5,0V5.547A1.5,1.5,0,0,1,0,7.047Z" transform="translate(77.832 70.718)" fill="#9da8b1"/>
  <path id="Línea_8" data-name="Línea 8" d="M0,7.047a1.5,1.5,0,0,1-1.5-1.5V0A1.5,1.5,0,0,1,0-1.5,1.5,1.5,0,0,1,1.5,0V5.547A1.5,1.5,0,0,1,0,7.047Z" transform="translate(93.752 67.332)" fill="#9da8b1"/>
  <path id="Línea_9" data-name="Línea 9" d="M0,7.047a1.5,1.5,0,0,1-1.5-1.5V0A1.5,1.5,0,0,1,0-1.5,1.5,1.5,0,0,1,1.5,0V5.547A1.5,1.5,0,0,1,0,7.047Z" transform="translate(106.168 63.455)" fill="#9da8b1"/>
  <path id="Línea_10" data-name="Línea 10" d="M0,7.047a1.5,1.5,0,0,1-1.5-1.5V0A1.5,1.5,0,0,1,0-1.5,1.5,1.5,0,0,1,1.5,0V5.547A1.5,1.5,0,0,1,0,7.047Z" transform="translate(26.248 67.332)" fill="#9da8b1"/>
  <path id="Línea_11" data-name="Línea 11" d="M0,7.047a1.5,1.5,0,0,1-1.5-1.5V0A1.5,1.5,0,0,1,0-1.5,1.5,1.5,0,0,1,1.5,0V5.547A1.5,1.5,0,0,1,0,7.047Z" transform="translate(13.832 63.455)" fill="#9da8b1"/>
  <path id="Línea_12" data-name="Línea 12" d="M0,7.047a1.5,1.5,0,0,1-1.5-1.5V0A1.5,1.5,0,0,1,0-1.5,1.5,1.5,0,0,1,1.5,0V5.547A1.5,1.5,0,0,1,0,7.047Z" transform="translate(42.168 70.718)" fill="#9da8b1"/>
  <path id="Línea_13" data-name="Línea 13" d="M0,7.059a1.5,1.5,0,0,1-1.5-1.5V0A1.5,1.5,0,0,1,0-1.5,1.5,1.5,0,0,1,1.5,0V5.559A1.5,1.5,0,0,1,0,7.059Z" transform="translate(51.158 29.471)" fill="#9da8b1"/>
  <path id="Línea_14" data-name="Línea 14" d="M0,7.059a1.5,1.5,0,0,1-1.5-1.5V0A1.5,1.5,0,0,1,0-1.5,1.5,1.5,0,0,1,1.5,0V5.559A1.5,1.5,0,0,1,0,7.059Z" transform="translate(69.158 29.471)" fill="#9da8b1"/>
  <path id="Trazado_20990" data-name="Trazado 20990" d="M95.6,40.114a1.5,1.5,0,0,1-1.5-1.5V27.873s0,0,0,0V18.782a1.5,1.5,0,0,1,2.383-1.213l12.235,8.911a1.5,1.5,0,0,1-.861,2.712L97.1,29.35v9.265A1.5,1.5,0,0,1,95.6,40.114ZM97.1,21.73v4.619l6.218-.091Z" fill="#9da8b1"/>
  <path id="Trazado_20991" data-name="Trazado 20991" d="M24.721,40.114a1.5,1.5,0,0,1-1.5-1.5V29.35l-10.757-.157a1.5,1.5,0,0,1-.861-2.712L23.837,17.57a1.5,1.5,0,0,1,2.383,1.213v9.086s0,0,0,0V38.614A1.5,1.5,0,0,1,24.721,40.114ZM17,26.259l6.218.091V21.73Z" fill="#9da8b1"/>
</svg>
