<svg xmlns="http://www.w3.org/2000/svg" width="17.5" height="20.409" viewBox="0 0 17.5 20.409">
  <g id="icon_Eliminar" data-name="icon / Eliminar" transform="translate(-187.25 -466.25)">
    <path id="Trazado_20985" data-name="Trazado 20985" d="M190.3,385.184H203.39a.75.75,0,0,1,.75.75v12.571a4.194,4.194,0,0,1-4.187,4.191h-6.214a4.194,4.194,0,0,1-4.187-4.191V385.934A.75.75,0,0,1,190.3,385.184Zm12.339,1.5H191.051v11.821a2.692,2.692,0,0,0,2.687,2.691h6.214a2.692,2.692,0,0,0,2.687-2.691Z" transform="translate(-0.845 83.963)"/>
    <path id="Línea_2169" data-name="Línea 2169" d="M0,8.028a.75.75,0,0,1-.75-.75V0A.75.75,0,0,1,0-.75.75.75,0,0,1,.75,0V7.278A.75.75,0,0,1,0,8.028Z" transform="translate(193.818 474.27)"/>
    <path id="Línea_2170" data-name="Línea 2170" d="M0,8.028a.75.75,0,0,1-.75-.75V0A.75.75,0,0,1,0-.75.75.75,0,0,1,.75,0V7.278A.75.75,0,0,1,0,8.028Z" transform="translate(198.182 474.27)"/>
    <path id="Línea_2171" data-name="Línea 2171" d="M16,.75H0A.75.75,0,0,1-.75,0,.75.75,0,0,1,0-.75H16a.75.75,0,0,1,.75.75A.75.75,0,0,1,16,.75Z" transform="translate(188 469.912)"/>
    <path id="Trazado_20986" data-name="Trazado 20986" d="M200.118,387.057a.75.75,0,0,1-.637-.353l-.856-1.369a2.532,2.532,0,0,0-4.293,0l-.857,1.37a.75.75,0,0,1-1.272-.8l.857-1.369a4.032,4.032,0,0,1,6.838,0l.856,1.369a.75.75,0,0,1-.635,1.147Z" transform="translate(-0.479 83.605)"/>
  </g>
</svg>
