<svg xmlns="http://www.w3.org/2000/svg" width="21.5" height="19.5" viewBox="0 0 21.5 19.5">
  <g id="icon_zapatillas" data-name="icon / zapatillas" transform="translate(-3.25 -5.25)">
    <path id="Trazado_21093" data-name="Trazado 21093" d="M28,5.25h8a.75.75,0,0,1,.75.75v4a.75.75,0,0,1-.75.75H28a.75.75,0,0,1-.75-.75V6A.75.75,0,0,1,28,5.25Zm7.25,1.5h-6.5v2.5h6.5Z" transform="translate(-12)"/>
    <path id="Trazado_21094" data-name="Trazado 21094" d="M16,13.25h8a.75.75,0,0,1,.75.75V25A1.752,1.752,0,0,1,23,26.75H6A2.753,2.753,0,0,1,3.25,24V21A4.755,4.755,0,0,1,8,16.25h7.25V14A.75.75,0,0,1,16,13.25Zm7.25,1.5h-6.5V17a.75.75,0,0,1-.75.75H8A3.254,3.254,0,0,0,4.75,21v3A1.251,1.251,0,0,0,6,25.25H23a.247.247,0,0,0,.25-.25Z" transform="translate(0 -4)"/>
    <path id="Trazado_21095" data-name="Trazado 21095" d="M14,23.75a.75.75,0,0,1-.75-.75V20a.75.75,0,0,1,1.5,0v3A.75.75,0,0,1,14,23.75Z" transform="translate(-5 -7)"/>
    <path id="Trazado_21096" data-name="Trazado 21096" d="M21,23.75a.75.75,0,0,1-.75-.75V20a.75.75,0,0,1,1.5,0v3A.75.75,0,0,1,21,23.75Z" transform="translate(-8.5 -7)"/>
    <path id="Trazado_21097" data-name="Trazado 21097" d="M15,40.75a.75.75,0,0,1-.75-.75V38a.75.75,0,0,1,1.5,0v2A.75.75,0,0,1,15,40.75Z" transform="translate(-5.5 -16)"/>
    <path id="Trazado_21098" data-name="Trazado 21098" d="M8,40.75A.75.75,0,0,1,7.25,40V38a.75.75,0,0,1,1.5,0v2A.75.75,0,0,1,8,40.75Z" transform="translate(-2 -16)"/>
    <path id="Trazado_21099" data-name="Trazado 21099" d="M22,40.75a.75.75,0,0,1-.75-.75V38a.75.75,0,0,1,1.5,0v2A.75.75,0,0,1,22,40.75Z" transform="translate(-9 -16)"/>
    <path id="Trazado_21100" data-name="Trazado 21100" d="M34,40.75a.75.75,0,0,1-.75-.75V38a.75.75,0,0,1,1.5,0v2A.75.75,0,0,1,34,40.75Z" transform="translate(-15 -16)"/>
    <path id="Trazado_21101" data-name="Trazado 21101" d="M41,40.75a.75.75,0,0,1-.75-.75V38a.75.75,0,0,1,1.5,0v2A.75.75,0,0,1,41,40.75Z" transform="translate(-18.5 -16)"/>
    <path id="Trazado_21102" data-name="Trazado 21102" d="M17.5,20.75H12a.75.75,0,0,1,0-1.5h5.5a.75.75,0,0,1,0,1.5Z" transform="translate(-4 -7)"/>
  </g>
</svg>
