<svg xmlns="http://www.w3.org/2000/svg" width="18.001" height="18.002" viewBox="0 0 18.001 18.002">
  <g id="icon_editar" data-name="icon / editar" transform="translate(-136.249 -533.25)">
    <path id="Trazado_20988" data-name="Trazado 20988" d="M555.021,382.656a3.19,3.19,0,0,1,2.256,5.446l-10.832,10.831a1.289,1.289,0,0,1-.506.312l-2.458.827-1.575.52a1.285,1.285,0,0,1-1.452-.472,1.274,1.274,0,0,1-.177-1.16l1.345-4.035a1.288,1.288,0,0,1,.311-.5l10.831-10.831A3.169,3.169,0,0,1,555.021,382.656Zm-9.6,15.181,10.8-10.8a1.69,1.69,0,1,0-2.39-2.39l-10.8,10.8-1.2,3.59,1.174-.388Z" transform="translate(-403.961 150.594)"/>
    <path id="Línea_2174" data-name="Línea 2174" d="M3.444,4.194a.748.748,0,0,1-.53-.22L-.53.53A.75.75,0,0,1-.53-.53.75.75,0,0,1,.53-.53L3.974,2.914a.75.75,0,0,1-.53,1.28Z" transform="translate(147.618 536.449)"/>
  </g>
</svg>
