<svg id="logo_equipos_1" data-name="logo / equipos 1" xmlns="http://www.w3.org/2000/svg" width="212.257" height="128.195" viewBox="0 0 212.257 128.195">
  <path id="Trazado_21013" data-name="Trazado 21013" d="M264.969-122.5c2.594.857,5.338.741,7.994,1.229a97.538,97.538,0,0,1,27.174,8.994,2.842,2.842,0,0,1,1.756,2.939q-.08,37.276-.033,74.551A16.789,16.789,0,0,1,294.6-20.3c-11.84,8.541-23.619,17.167-35.734,25.321a2.738,2.738,0,0,1-3.392.163C242-2.64,229.706-12.093,217.656-21.886a14.572,14.572,0,0,1-4.425-6.851c-.211-.622-.1-1.418-.829-1.812v-80.93a9.929,9.929,0,0,0,1.168-.44,96.421,96.421,0,0,1,26.9-9.165c2.788-.528,5.681-.415,8.387-1.412Zm19.081,9.476v2.638c0,9.037-.053,18.076.045,27.112.02,1.783-.521,2.29-2.23,2.3a42.976,42.976,0,0,0-6.958.531c-2.032.346-2.447-.28-2.429-2.228.094-10.308.012-20.617.079-30.925.01-1.523-.351-2.146-1.957-2.169-1.9-.027-3.788-.382-5.687-.522a102.394,102.394,0,0,0-46.218,7.094A1.948,1.948,0,0,0,217.262-107c.081,3.458.029,6.919.029,10.379q0,31.455-.014,62.91c0,3.554,1.091,6.484,4.124,8.54.875.593,1.7,1.265,2.542,1.9C234.186-15.521,244.581-8,255.734-1.58a2.638,2.638,0,0,0,3.218-.065c4.324-2.788,8.72-5.469,13.14-8.1a2.884,2.884,0,0,0,1.588-2.868c-.06-11.791-.029-23.583-.042-35.374,0-1.328.4-3.121-.288-3.862-.829-.894-2.441.257-3.712.51-.966.193-1.4.066-1.377-1.072.062-3.388.049-6.778.006-10.166-.012-.971.306-1.327,1.3-1.459,5.663-.757,11.317-1.578,16.969-2.417.956-.142,1.405-.044,1.359,1.1a44.061,44.061,0,0,0,.025,6.56c.256,2.336-.442,3.589-2.868,3.648-1.526.037-1.894.793-1.884,2.288.072,10.943.039,21.888.039,32.831v2.334c2.964-2.166,5.5-4.316,8.311-6.006,4.524-2.72,5.975-6.589,5.938-11.717-.155-21.6-.065-43.211-.065-64.816,0-2.259,0-4.519,0-6.778,0-.708.087-1.427-.809-1.731C292.463-110.14,288.353-111.549,284.05-113.02Z" transform="translate(-212.402 122.496)" fill="#ff1e5b"/>
  <path id="Trazado_21014" data-name="Trazado 21014" d="M596.479-75.835c1.883-4.687,3.621-8.913,5.264-13.176a1.874,1.874,0,0,1,2.137-1.482c2.314.14,5.338-.748,6.766.4,1.494,1.2.425,4.349.444,6.64.064,7.69-.014,15.382.058,23.073.014,1.449-.316,2.036-1.844,1.874-1.877-.2-4.33.761-5.513-.364s-.34-3.6-.371-5.482c-.06-3.706-.017-7.414-.433-11.245-1.31,3.056-2.6,6.118-3.939,9.162-.449,1.024-.565,2.2-2.316,2.2a2.76,2.76,0,0,1-2.889-2.063c-1.267-2.943-2.663-5.83-4.007-8.74l-.544.06v3.811c0,3.669-.05,7.339.027,11.007.027,1.293-.357,1.791-1.669,1.649-1.937-.209-4.448.833-5.676-.43-1.13-1.162-.319-3.633-.326-5.524-.032-8.044.022-16.088-.046-24.131-.013-1.469.372-2.023,1.882-1.891,2.168.191,4.8-.792,6.4.383,1.483,1.091,1.908,3.637,2.766,5.557C593.879-81.793,595.078-79.025,596.479-75.835Z" transform="translate(-424.582 104.223)" fill="#ff1e5b"/>
  <path id="Trazado_21015" data-name="Trazado 21015" d="M657.612,10.478c1.824-4.507,3.532-8.591,5.117-12.722.51-1.331,1.076-2.085,2.681-1.923,2.018.2,4.754-.645,5.916.385,1.346,1.193.4,3.976.414,6.062.053,7.833-.012,15.667.053,23.5.011,1.387-.189,2.074-1.787,1.91-1.736-.179-4.035.527-5.1-.351-1.135-.936-.316-3.308-.342-5.049-.058-3.879-.018-7.76-.33-11.76-1.425,3.28-2.934,6.527-4.233,9.856a2.3,2.3,0,0,1-2.585,1.754,2.116,2.116,0,0,1-2.157-1.55,78.484,78.484,0,0,0-4.764-9.35c0,4.831-.076,9.664.042,14.491.04,1.631-.442,2.118-2.01,1.951-1.807-.193-4.172.734-5.307-.341-1.151-1.09-.341-3.467-.35-5.276-.039-8.115.019-16.232-.05-24.347-.013-1.466.36-2.006,1.867-1.873,2.167.192,4.807-.79,6.4.379,1.483,1.092,1.892,3.657,2.745,5.586C655.051,4.576,656.249,7.351,657.612,10.478Z" transform="translate(-459.793 54.617)" fill="#ff1e5b"/>
  <path id="Trazado_21016" data-name="Trazado 21016" d="M596.52,13.246c0,4.371-.054,8.744.033,13.113.026,1.309-.324,1.72-1.637,1.633a51.584,51.584,0,0,0-5.288-.011c-.938.034-1.219-.3-1.188-1.209.06-1.76-.036-3.527.037-5.286.042-1.01-.286-1.275-1.3-1.32-5.915-.264-6-.292-5.869,5.565.043,1.876-.441,2.482-2.3,2.267a22.945,22.945,0,0,0-4.438-.008c-1.367.109-1.631-.445-1.624-1.693.049-8.531.006-17.062.035-25.592.011-3.392,1.209-4.522,4.639-4.528q7.194-.014,14.39,0c3.4.007,4.5,1.138,4.506,4.591Q596.524,7.007,596.52,13.246ZM581.189,8.153c0,4.99,0,4.99,4.98,4.97a4.466,4.466,0,0,1,.631,0c1.076.152,1.507-.231,1.468-1.385-.08-2.385-.064-4.775-.008-7.161.03-1.294-.522-1.731-1.767-1.7-6.513.156-5.138-.968-5.3,5.063C581.188,8.012,581.189,8.083,581.189,8.153Z" transform="translate(-419.738 54.315)" fill="#ff1e5b"/>
  <path id="Trazado_21017" data-name="Trazado 21017" d="M514.488-74.51c0-3.74-.029-7.48.009-11.219.032-3.229,1.121-4.408,4.285-4.45q7.623-.1,15.248,0c3.152.039,4.273,1.268,4.277,4.44q.011,11.43,0,22.861c0,3.2-1.035,4.393-4.263,4.455q-7.621.148-15.247,0c-3.217-.065-4.269-1.241-4.3-4.441C514.459-66.749,514.488-70.63,514.488-74.51Zm8.346.247v3.386c0,5.661,0,5.6,5.621,5.516,1.412-.022,1.612-.581,1.6-1.754-.048-3.526-.017-7.054-.017-10.581,0-5.676,0-5.637-5.653-5.524-1.195.024-1.6.354-1.568,1.551C522.885-79.2,522.834-76.732,522.834-74.263Z" transform="translate(-386.114 103.956)" fill="#ff1e5b"/>
  <path id="Trazado_21018" data-name="Trazado 21018" d="M469.779-74.381c0,4.729-.04,9.46.026,14.189.017,1.256-.266,1.78-1.63,1.684-2.1-.149-4.839.663-6.145-.383-1.379-1.1-.348-3.956-.444-6.041-.075-1.62-.073-3.249.005-4.869.053-1.085-.265-1.525-1.41-1.466a43.668,43.668,0,0,1-4.871,0c-1.179-.071-1.4.413-1.381,1.466.058,3.246-.028,6.5.046,9.741.027,1.209-.356,1.617-1.561,1.549-2.173-.123-4.942.663-6.362-.4-1.375-1.029-.414-3.953-.428-6.039-.053-7.836.018-15.672-.056-23.507-.014-1.509.255-2.231,1.937-2.036,2.085.241,4.883-.88,6.089.463,1.035,1.152.306,3.888.356,5.923,0,.141-.009.283,0,.423.139,1.736-.762,4.464.334,5,1.777.864,4.241.328,6.415.36,1.176.017.852-.9.858-1.529.024-2.965.094-5.933-.025-8.893-.058-1.45.445-1.833,1.8-1.744a30.178,30.178,0,0,0,4.657-.007c1.582-.143,1.843.535,1.819,1.934C469.73-83.842,469.779-79.111,469.779-74.381Z" transform="translate(-346.339 104.231)" fill="#ff1e5b"/>
  <path id="Trazado_21019" data-name="Trazado 21019" d="M510.119,12.335c0-4.658.046-9.317-.028-13.975-.023-1.394.246-1.983,1.825-1.957,5.789.095,11.581.077,17.371.009,1.329-.016,1.647.41,1.664,1.689.07,5.349.114,5.349-5.126,5.349-1.907,0-3.822.111-5.717-.034-1.56-.12-1.84.478-1.809,1.9.078,3.565.007,3.566,3.535,3.567a38.735,38.735,0,0,1,6.134.064c2.727.443.817,2.717,1.155,4.1.188.769,1.073,2.614-1.159,2.624-2.683.012-5.368.046-8.05-.017-1.1-.026-1.6.149-1.617,1.452-.055,4.209-.119,4.208,4.135,4.208,2.33,0,4.662.042,6.991-.019,1.038-.027,1.467.209,1.528,1.374.3,5.719.338,5.717-5.429,5.717-4.59,0-9.181-.05-13.77.031-1.331.024-1.676-.4-1.658-1.677C510.158,21.935,510.119,17.135,510.119,12.335Z" transform="translate(-383.591 54.18)" fill="#ff1e5b"/>
  <path id="Trazado_21020" data-name="Trazado 21020" d="M663.272-74.256c0-4.8.036-9.6-.025-14.4-.015-1.178.29-1.577,1.519-1.564q8.687.089,17.375,0c1.237-.013,1.5.405,1.518,1.569.091,5.468.128,5.467-5.388,5.467a35.993,35.993,0,0,1-4.656-.04c-2.007-.264-2.476.6-2.219,2.346a6.744,6.744,0,0,1,0,1.691c-.121,1.109.316,1.48,1.435,1.452,2.682-.068,5.37.043,8.05-.05,1.24-.043,1.487.4,1.5,1.552.075,5.268.112,5.267-5.2,5.267h-1.907c-4.166,0-4.478.431-3.9,4.687.153,1.121.812.945,1.482.947,3.108.011,6.216.044,9.323-.017,1.064-.021,1.439.23,1.48,1.387.2,5.708.241,5.707-5.4,5.707-4.45,0-8.9-.049-13.349.031-1.287.023-1.693-.3-1.671-1.63C663.321-64.654,663.272-69.455,663.272-74.256Z" transform="translate(-471.661 103.952)" fill="#ff1e5b"/>
  <path id="Trazado_21021" data-name="Trazado 21021" d="M457.538-3.545c3.177,0,6.355.041,9.53-.021,1.177-.023,1.862.12,1.727,1.566-.162,1.739.534,4.028-.341,5.1-.93,1.142-3.311.391-5.037.314-1.59-.071-1.989.379-1.968,1.968.1,7.054,0,14.111.076,21.167.017,1.494-.4,1.987-1.891,1.871a33.309,33.309,0,0,0-4.867,0c-1.337.093-1.662-.394-1.652-1.677.058-7.126-.03-14.254.071-21.379.023-1.626-.441-1.962-1.987-1.94-5.4.074-5.352.011-5.3-5.342.013-1.328.409-1.683,1.685-1.654C450.9-3.494,454.22-3.545,457.538-3.545Z" transform="translate(-346.672 54.166)" fill="#ff1e5b"/>
  <path id="Trazado_21022" data-name="Trazado 21022" d="M585.784,91.922c0-2.33.054-4.661-.021-6.988-.04-1.226.427-1.571,1.6-1.557,3.1.035,6.21-.044,9.315-.074a1.882,1.882,0,0,1,2.082,2.111c.038,2.541.02,5.083,0,7.624,0,.339-.036.846-.248.99-2.34,1.586-.98,3.357-.282,5.072.45,1.107.586,1.643-1.048,1.744-2.188.135-3.346-.508-3.932-2.679-.282-1.046-.228-3.081-1.892-2.755-1.606.316-.8,2.179-.713,3.248.181,2.2-1.007,2.114-2.554,2.156-1.6.044-2.5-.165-2.349-2.118C585.92,96.451,585.783,94.181,585.784,91.922Zm4.546-2.733c-.135,1.367-.264,2.419,1.793,2.407,1.965-.012,2.12-.811,2.093-2.379-.026-1.461-.122-2.29-2-2.288S590.067,87.736,590.329,89.188Z" transform="translate(-427.085 4.25)" fill="#541023"/>
  <path id="Trazado_21023" data-name="Trazado 21023" d="M543.606,91.183c0-1.971,0-3.942,0-5.913a2.145,2.145,0,0,1,2.438-2.47c2.677.018,5.354.037,8.029-.008a2.187,2.187,0,0,1,2.5,2.442q.064,6.23-.006,12.46c-.02,1.592-.88,2.412-2.567,2.376-2.6-.055-5.212-.043-7.818,0-1.769.026-2.6-.784-2.585-2.545C543.621,95.407,543.605,93.3,543.606,91.183Zm4.3.654c0,1.052.078,2.111-.018,3.155-.151,1.64.882,1.632,2,1.58,1.007-.046,2.2.293,2.148-1.449-.073-2.312-.018-4.629-.018-6.943,0-.642.017-1.218-.836-1.449-2.259-.613-3.275.09-3.28,2.372C547.9,90.013,547.905,90.925,547.906,91.837Z" transform="translate(-402.861 4.544)" fill="#541023"/>
  <path id="Trazado_21024" data-name="Trazado 21024" d="M501.543,91.668c0-2.4.041-4.8-.019-7.195-.027-1.09.34-1.5,1.452-1.484,2.893.052,5.787.006,8.681.023a2.217,2.217,0,0,1,2.511,2.46c0,2.681.011,5.361,0,8.042a2.227,2.227,0,0,1-2.5,2.473,33.908,33.908,0,0,1-3.6-.018c-1.486-.146-1.952.379-1.895,1.872.092,2.429-1.7,3.51-4.006,2.623-.747-.287-.611-.858-.615-1.388C501.534,96.606,501.543,94.137,501.543,91.668Zm4.36-2.216c0,2.89.025,2.914,2.394,2.724s1.149-2.015,1.237-3.053c.193-2.255-.294-2.559-2.456-2.3C504.987,87.071,506.331,88.7,505.9,89.453Z" transform="translate(-378.664 4.43)" fill="#541023"/>
  <path id="Trazado_21025" data-name="Trazado 21025" d="M468,100.216a23.519,23.519,0,0,0-3.176.026c-1.883.259-2.225-.6-2.154-2.269.054-1.277.538-1.558,1.656-1.5,1.2.065,2.4-.024,3.6.025,1.036.043,1.543-.26,1.541-1.42,0-1.141-.479-1.4-1.523-1.452-5.228-.273-5.226-.3-5.226-5.581,0-5.116,0-5.116,5.115-5.116a30.13,30.13,0,0,0,3.6-.027c1.845-.223,2.513.379,2.364,2.3-.1,1.259-.361,1.807-1.69,1.686-1.051-.1-2.121.034-3.176-.033-1.137-.072-1.651.257-1.641,1.52.011,1.322.781,1.227,1.664,1.252,5.151.15,5.118.159,5.158,4.532C474.182,101.019,474.136,100.178,468,100.216Z" transform="translate(-356.319 4.504)" fill="#541023"/>
  <path id="Trazado_21026" data-name="Trazado 21026" d="M672.325,100.277a22.029,22.029,0,0,0-2.957.023c-1.817.248-2.291-.5-2.187-2.224.073-1.206.43-1.613,1.6-1.542,1.264.076,2.537-.02,3.8.025.985.035,1.371-.339,1.384-1.351.014-1.071-.326-1.61-1.446-1.5-.07.007-.141,0-.211,0-6.22.342-5.031-1.012-5.077-5.283-.055-5.209-.667-5.551,5.379-5.44,1.409.026,2.823.08,4.226-.014,1.816-.121,1.345,1.145,1.407,2.118.068,1.053.086,2-1.458,1.858-1.118-.1-2.256.037-3.38-.034-1.162-.073-1.62.313-1.613,1.542.008,1.337.812,1.206,1.677,1.23,5.136.145,5.1.151,5.143,4.532C678.686,101.236,678.576,100.207,672.325,100.277Z" transform="translate(-473.92 4.443)" fill="#541023"/>
  <path id="Trazado_21027" data-name="Trazado 21027" d="M632.25,83.01c1.623,0,3.248.048,4.869-.014,1.536-.059,1.256,1.014,1.209,1.87s.512,2.3-1.193,2.045c-2.619-.4-2.8.984-2.7,3.029.141,2.955-.076,5.929.075,8.883.1,2.008-1.146,1.706-2.311,1.673-1.1-.032-2.457.5-2.369-1.6.142-3.38-.011-6.771.062-10.155.029-1.317-.274-1.894-1.74-1.834-1.974.081-2.8-1.329-2.144-3.243.261-.759.835-.645,1.373-.652C629,83,630.627,83.01,632.25,83.01Z" transform="translate(-450.123 4.427)" fill="#541023"/>
  <path id="Trazado_21028" data-name="Trazado 21028" d="M266.695-43.476q0,24.887,0,49.775c0,2.516-.011,2.521-2.18,1.33-10.7-5.876-21.564-11.441-31.5-18.616a8.567,8.567,0,0,1-3.867-7.67c.065-19.345.032-38.691.032-58.036,0-4.448.049-8.9-.031-13.344a2,2,0,0,1,1.6-2.272c7.913-2.732,16.108-3.437,24.4-3.518,2.966-.029,5.941.127,8.9-.05,2.081-.124,2.733.4,2.719,2.624C266.646-76.66,266.695-60.068,266.695-43.476Z" transform="translate(-222.029 107.21)" fill="#541023"/>
</svg>
