<svg id="logo_equipos_2" data-name="logo / equipos 2" xmlns="http://www.w3.org/2000/svg" width="89.491" height="128.195" viewBox="0 0 89.491 128.195">
  <path id="Trazado_21013" data-name="Trazado 21013" d="M264.969-122.5c2.594.857,5.338.741,7.994,1.229a97.538,97.538,0,0,1,27.174,8.994,2.842,2.842,0,0,1,1.756,2.939q-.08,37.276-.033,74.551A16.789,16.789,0,0,1,294.6-20.3c-11.84,8.541-23.619,17.167-35.734,25.321a2.738,2.738,0,0,1-3.392.163C242-2.64,229.706-12.093,217.656-21.886a14.572,14.572,0,0,1-4.425-6.851c-.211-.622-.1-1.418-.829-1.812v-80.93a9.929,9.929,0,0,0,1.168-.44,96.421,96.421,0,0,1,26.9-9.165c2.788-.528,5.681-.415,8.387-1.412Zm19.081,9.476v2.638c0,9.037-.053,18.076.045,27.112.02,1.783-.521,2.29-2.23,2.3a42.976,42.976,0,0,0-6.958.531c-2.032.346-2.447-.28-2.429-2.228.094-10.308.012-20.617.079-30.925.01-1.523-.351-2.146-1.957-2.169-1.9-.027-3.788-.382-5.687-.522a102.394,102.394,0,0,0-46.218,7.094A1.948,1.948,0,0,0,217.262-107c.081,3.458.029,6.919.029,10.379q0,31.455-.014,62.91c0,3.554,1.091,6.484,4.124,8.54.875.593,1.7,1.265,2.542,1.9C234.186-15.521,244.581-8,255.734-1.58a2.638,2.638,0,0,0,3.218-.065c4.324-2.788,8.72-5.469,13.14-8.1a2.884,2.884,0,0,0,1.588-2.868c-.06-11.791-.029-23.583-.042-35.374,0-1.328.4-3.121-.288-3.862-.829-.894-2.441.257-3.712.51-.966.193-1.4.066-1.377-1.072.062-3.388.049-6.778.006-10.166-.012-.971.306-1.327,1.3-1.459,5.663-.757,11.317-1.578,16.969-2.417.956-.142,1.405-.044,1.359,1.1a44.061,44.061,0,0,0,.025,6.56c.256,2.336-.442,3.589-2.868,3.648-1.526.037-1.894.793-1.884,2.288.072,10.943.039,21.888.039,32.831v2.334c2.964-2.166,5.5-4.316,8.311-6.006,4.524-2.72,5.975-6.589,5.938-11.717-.155-21.6-.065-43.211-.065-64.816,0-2.259,0-4.519,0-6.778,0-.708.087-1.427-.809-1.731C292.463-110.14,288.353-111.549,284.05-113.02Z" transform="translate(-212.402 122.496)" fill="#ff1e5b"/>
  <path id="Trazado_21028" data-name="Trazado 21028" d="M266.695-43.476q0,24.887,0,49.775c0,2.516-.011,2.521-2.18,1.33-10.7-5.876-21.564-11.441-31.5-18.616a8.567,8.567,0,0,1-3.867-7.67c.065-19.345.032-38.691.032-58.036,0-4.448.049-8.9-.031-13.344a2,2,0,0,1,1.6-2.272c7.913-2.732,16.108-3.437,24.4-3.518,2.966-.029,5.941.127,8.9-.05,2.081-.124,2.733.4,2.719,2.624C266.646-76.66,266.695-60.068,266.695-43.476Z" transform="translate(-222.029 107.21)" fill="#541023"/>
</svg>
