<svg id="logo_coex" data-name="logo / coex" xmlns="http://www.w3.org/2000/svg" width="180" height="72.448" viewBox="0 0 180 72.448">
  <path id="Trazado_21029" data-name="Trazado 21029" d="M-737.631,269.518a2.551,2.551,0,0,1-2.295,2.3s-.991.285-2.593-1.2a10.209,10.209,0,0,0-6.9-2.562A10.569,10.569,0,0,0-760,278.769a10.607,10.607,0,0,0,10.169,10.4,10.294,10.294,0,0,0,8.991-4.389,6.4,6.4,0,0,0,.483-.837,2.659,2.659,0,0,1,.4-.631,2.655,2.655,0,0,1,2.022-.93,2.664,2.664,0,0,1,2.666,2.661,1.944,1.944,0,0,1-.073.618,4.232,4.232,0,0,1-.527,1.066c-.137.2-.451.609-.583.808a15.259,15.259,0,0,1-12.978,6.816,15.744,15.744,0,0,1-15.752-15.736,15.745,15.745,0,0,1,15.752-15.737,15.262,15.262,0,0,1,10.36,3.883A3.726,3.726,0,0,1-737.631,269.518Z" transform="translate(785.699 -242.403)" fill="#161616"/>
  <path id="Trazado_21030" data-name="Trazado 21030" d="M-730.1,217.71a36.1,36.1,0,0,1,34.37,36.189,36.113,36.113,0,0,1-2.106,12.2h0a2.533,2.533,0,0,1-.308.832,2.627,2.627,0,0,1-2.637,1.282,2.632,2.632,0,0,1-2.251-2.4,2.6,2.6,0,0,1,.1-.922,2.266,2.266,0,0,1,.14-.377,30.944,30.944,0,0,0,1.863-10.611,31.056,31.056,0,0,0-29.467-31l-.754-.029a2.484,2.484,0,0,1-2.151-2.578,2.621,2.621,0,0,1,2.146-2.577l.46-.029Z" transform="translate(768.287 -217.686)" fill="#161616"/>
  <path id="Trazado_21031" data-name="Trazado 21031" d="M-810.425,290.644a36.255,36.255,0,0,0,36.276,36.236,30.229,30.229,0,0,0,7.6-.8l1.061-.248a2.627,2.627,0,0,0,1.574-1.038,2.609,2.609,0,0,0,.463-1.489,2.633,2.633,0,0,0-1.448-2.352,2.538,2.538,0,0,0-1.542-.209l-.3.048c-.207.054-.063.015-.272.064a31.146,31.146,0,0,1-7.139.824,31.055,31.055,0,0,1-31.072-31.038l.168-2.933a2.664,2.664,0,0,0-2.45-2.834c-.054,0-.108,0-.163,0s-.117,0-.174.005a2.626,2.626,0,0,0-2.406,2.5Z" transform="translate(810.425 -254.432)" fill="#161616"/>
  <path id="Trazado_21032" data-name="Trazado 21032" d="M-776.211,250.341a21.919,21.919,0,0,1,16.275-7.268,22.025,22.025,0,0,1,22.028,21.788A21.959,21.959,0,0,1-759.88,286.97a21.96,21.96,0,0,1-18.5-10.107c-.4-.628-.65-1.2-1.068-1.965a4.131,4.131,0,0,0-.322-.544,2.624,2.624,0,0,0-1.676-1h-.005a2.569,2.569,0,0,0-.4-.03,1.875,1.875,0,0,0-.2.009h-.005c-.056,0-.112.01-.168.018a2.493,2.493,0,0,0-1.886,3.462l.437,1.023a27.021,27.021,0,0,0,23.79,14.178,27.011,27.011,0,0,0,27.026-27.195,27.087,27.087,0,0,0-26.954-26.8c-8.114-.021-15.069,3.586-20.35,9.059a3.868,3.868,0,0,0-.819,1.065,2.605,2.605,0,0,0-.271,1.16,2.622,2.622,0,0,0,2.151,2.579S-777.695,252.2-776.211,250.341Z" transform="translate(796.155 -228.809)" fill="#c9231b"/>
  <path id="Trazado_21033" data-name="Trazado 21033" d="M-695.847,359.647a2.531,2.531,0,0,1-.046.483,2.537,2.537,0,0,1-.308.832,2.625,2.625,0,0,1-2.271,1.307,2.624,2.624,0,0,1-2.624-2.623,2.571,2.571,0,0,1,.1-.724,2.315,2.315,0,0,1,.14-.377,2.624,2.624,0,0,1,2.381-1.519A2.623,2.623,0,0,1-695.847,359.647Z" transform="translate(750.684 -293.894)" fill="#c9231b"/>
  <path id="Trazado_21034" data-name="Trazado 21034" d="M-682.089,350.161a2.54,2.54,0,0,1-.046.483,2.539,2.539,0,0,1-.308.832,2.625,2.625,0,0,1-2.271,1.307,2.623,2.623,0,0,1-2.624-2.622,2.57,2.57,0,0,1,.1-.724,2.278,2.278,0,0,1,.14-.377,2.623,2.623,0,0,1,2.381-1.519A2.623,2.623,0,0,1-682.089,350.161Z" transform="translate(743.167 -288.706)" fill="#c9231b"/>
  <path id="Trazado_21035" data-name="Trazado 21035" d="M-801.445,271.9a2.541,2.541,0,0,1-.045.483,2.529,2.529,0,0,1-.309.832,2.625,2.625,0,0,1-2.271,1.307,2.623,2.623,0,0,1-2.623-2.622,2.583,2.583,0,0,1,.1-.724,2.357,2.357,0,0,1,.14-.377,2.624,2.624,0,0,1,2.381-1.519A2.623,2.623,0,0,1-801.445,271.9Z" transform="translate(808.386 -245.901)" fill="#c9231b"/>
  <path id="Trazado_21036" data-name="Trazado 21036" d="M-794.166,255.745a2.529,2.529,0,0,1-.046.483,2.53,2.53,0,0,1-.308.832,2.626,2.626,0,0,1-2.271,1.307,2.623,2.623,0,0,1-2.623-2.622,2.57,2.57,0,0,1,.1-.724,2.3,2.3,0,0,1,.14-.377,2.623,2.623,0,0,1,2.381-1.519A2.623,2.623,0,0,1-794.166,255.745Z" transform="translate(804.409 -237.068)" fill="#c9231b"/>
  <path id="Trazado_21037" data-name="Trazado 21037" d="M-784.94,245.881a1.23,1.23,0,0,1-.022.236,1.246,1.246,0,0,1-.151.406,1.284,1.284,0,0,1-1.109.638,1.282,1.282,0,0,1-1.282-1.281,1.251,1.251,0,0,1,.05-.354,1.114,1.114,0,0,1,.068-.184,1.281,1.281,0,0,1,1.163-.742A1.282,1.282,0,0,1-784.94,245.881Z" transform="translate(797.9 -232.406)" fill="#c9231b"/>
  <g id="Grupo_43049" data-name="Grupo 43049" transform="translate(80.664 49.674)">
    <path id="Trazado_21038" data-name="Trazado 21038" d="M-631.356,329.811h-1.227v-.442h2.988v.442h-1.233V333.4h-.527Z" transform="translate(632.583 -328.442)" fill="#161616"/>
    <path id="Trazado_21039" data-name="Trazado 21039" d="M-625,329.386a5.462,5.462,0,0,1,1-.083,1.651,1.651,0,0,1,1.168.329,1,1,0,0,1,.317.765,1.058,1.058,0,0,1-.76,1.028v.018a1,1,0,0,1,.592.813,6.429,6.429,0,0,0,.312,1.106h-.539a5.221,5.221,0,0,1-.269-.963c-.12-.556-.335-.766-.808-.783h-.491v1.746H-625Zm.521,1.836h.533c.557,0,.91-.305.91-.766,0-.52-.377-.748-.928-.753a2.137,2.137,0,0,0-.515.048Z" transform="translate(628.441 -328.406)" fill="#161616"/>
    <path id="Trazado_21040" data-name="Trazado 21040" d="M-617.548,332.131l-.419,1.268h-.539l1.371-4.031h.628l1.377,4.031h-.557l-.431-1.268Zm1.323-.406-.4-1.16c-.09-.263-.15-.5-.209-.735h-.012c-.06.239-.126.484-.2.729l-.4,1.166Z" transform="translate(624.891 -328.442)" fill="#161616"/>
    <path id="Trazado_21041" data-name="Trazado 21041" d="M-609.751,333.4v-4.031h.568l1.294,2.039a11.42,11.42,0,0,1,.724,1.309l.012-.006c-.048-.538-.06-1.029-.06-1.656v-1.686h.491V333.4h-.527l-1.281-2.045a12.806,12.806,0,0,1-.754-1.346l-.018.006c.03.508.042.993.042,1.662V333.4Z" transform="translate(620.107 -328.442)" fill="#161616"/>
    <path id="Trazado_21042" data-name="Trazado 21042" d="M-601.379,332.686a1.85,1.85,0,0,0,.934.263c.533,0,.844-.281.844-.688,0-.377-.215-.592-.76-.8-.659-.233-1.065-.574-1.065-1.142a1.161,1.161,0,0,1,1.3-1.094,1.838,1.838,0,0,1,.892.2l-.144.425a1.611,1.611,0,0,0-.766-.191c-.551,0-.76.329-.76.6,0,.376.245.562.8.777.682.263,1.03.592,1.03,1.184,0,.622-.461,1.16-1.413,1.16a2.085,2.085,0,0,1-1.03-.257Z" transform="translate(615.604 -328.363)" fill="#161616"/>
    <path id="Trazado_21043" data-name="Trazado 21043" d="M-594.552,329.369h2.173v.436h-1.652v1.34h1.527v.43h-1.527V333.4h-.521Z" transform="translate(611.802 -328.442)" fill="#161616"/>
    <path id="Trazado_21044" data-name="Trazado 21044" d="M-584.961,331.263a1.888,1.888,0,0,1-1.873,2.123,1.849,1.849,0,0,1-1.814-2.045,1.915,1.915,0,0,1,1.874-2.117A1.836,1.836,0,0,1-584.961,331.263Zm-3.13.066c0,.861.467,1.632,1.287,1.632s1.293-.76,1.293-1.675c0-.8-.42-1.638-1.287-1.638S-588.092,330.444-588.092,331.329Z" transform="translate(608.576 -328.363)" fill="#161616"/>
    <path id="Trazado_21045" data-name="Trazado 21045" d="M-579.022,329.386a5.464,5.464,0,0,1,1-.083,1.652,1.652,0,0,1,1.167.329,1,1,0,0,1,.317.765,1.058,1.058,0,0,1-.76,1.028v.018a1,1,0,0,1,.592.813,6.425,6.425,0,0,0,.312,1.106h-.539a5.234,5.234,0,0,1-.27-.963c-.12-.556-.335-.766-.808-.783h-.491v1.746h-.521Zm.521,1.836h.533c.557,0,.91-.305.91-.766,0-.52-.377-.748-.928-.753a2.137,2.137,0,0,0-.515.048Z" transform="translate(603.316 -328.406)" fill="#161616"/>
    <path id="Trazado_21046" data-name="Trazado 21046" d="M-568.647,331.629c-.03-.562-.066-1.238-.06-1.74h-.018c-.138.473-.306.975-.509,1.531l-.713,1.955h-.4l-.653-1.92c-.191-.568-.353-1.088-.467-1.567h-.012c-.012.5-.042,1.178-.078,1.782l-.108,1.729h-.5l.281-4.031h.664l.689,1.949c.167.5.305.939.407,1.358h.018c.1-.407.245-.849.425-1.358l.718-1.949h.664l.251,4.031h-.508Z" transform="translate(599.563 -328.442)" fill="#161616"/>
    <path id="Trazado_21047" data-name="Trazado 21047" d="M-561.148,332.131l-.419,1.268h-.539l1.371-4.031h.628l1.377,4.031h-.557l-.431-1.268Zm1.323-.406-.4-1.16c-.09-.263-.15-.5-.21-.735h-.012c-.06.239-.125.484-.2.729l-.4,1.166Z" transform="translate(594.072 -328.442)" fill="#161616"/>
    <path id="Trazado_21048" data-name="Trazado 21048" d="M-551.018,333.188a2.579,2.579,0,0,1-1.065.192,1.885,1.885,0,0,1-1.993-2.039,2.007,2.007,0,0,1,2.107-2.117,2.162,2.162,0,0,1,.958.179l-.126.425a1.891,1.891,0,0,0-.814-.168,1.5,1.5,0,0,0-1.574,1.663,1.466,1.466,0,0,0,1.551,1.62,2.089,2.089,0,0,0,.85-.167Z" transform="translate(589.685 -328.363)" fill="#161616"/>
    <path id="Trazado_21049" data-name="Trazado 21049" d="M-545.37,329.369V333.4h-.521v-4.031Z" transform="translate(585.212 -328.442)" fill="#161616"/>
    <path id="Trazado_21050" data-name="Trazado 21050" d="M-539.574,330.223a1.889,1.889,0,0,1-1.874,2.123,1.849,1.849,0,0,1-1.814-2.045,1.915,1.915,0,0,1,1.874-2.117A1.836,1.836,0,0,1-539.574,330.223Zm-3.131.066c0,.861.467,1.632,1.287,1.632s1.293-.76,1.293-1.675c0-.8-.419-1.638-1.287-1.638S-542.706,329.4-542.706,330.289Zm2.161-2.966-.76.694h-.431l.557-.694Z" transform="translate(583.775 -327.323)" fill="#161616"/>
    <path id="Trazado_21051" data-name="Trazado 21051" d="M-533.636,333.4v-4.031h.569l1.293,2.039a11.346,11.346,0,0,1,.724,1.309l.012-.006c-.048-.538-.06-1.029-.06-1.656v-1.686h.491V333.4h-.527l-1.281-2.045a12.665,12.665,0,0,1-.754-1.346l-.018.006c.03.508.042.993.042,1.662V333.4Z" transform="translate(578.515 -328.442)" fill="#161616"/>
    <path id="Trazado_21052" data-name="Trazado 21052" d="M-522.147,329.386a7.5,7.5,0,0,1,1.107-.083,2.315,2.315,0,0,1,1.635.5,1.856,1.856,0,0,1,.569,1.448,2.132,2.132,0,0,1-.581,1.567,2.489,2.489,0,0,1-1.784.58,8.41,8.41,0,0,1-.946-.048Zm.521,3.564a3.286,3.286,0,0,0,.527.03,1.55,1.55,0,0,0,1.718-1.71,1.439,1.439,0,0,0-1.635-1.555,2.963,2.963,0,0,0-.61.054Z" transform="translate(572.238 -328.406)" fill="#161616"/>
    <path id="Trazado_21053" data-name="Trazado 21053" d="M-511.264,331.51h-1.568v1.453h1.748v.437h-2.269v-4.031h2.179v.436h-1.659v1.274h1.568Z" transform="translate(567.432 -328.442)" fill="#161616"/>
    <path id="Trazado_21054" data-name="Trazado 21054" d="M-501.525,333.188a2.579,2.579,0,0,1-1.065.192,1.885,1.885,0,0,1-1.993-2.039,2.007,2.007,0,0,1,2.107-2.117,2.16,2.16,0,0,1,.957.179l-.126.425a1.894,1.894,0,0,0-.814-.168,1.5,1.5,0,0,0-1.574,1.663,1.466,1.466,0,0,0,1.55,1.62,2.092,2.092,0,0,0,.85-.167Z" transform="translate(562.641 -328.363)" fill="#161616"/>
    <path id="Trazado_21055" data-name="Trazado 21055" d="M-494.308,331.51h-1.568v1.453h1.748v.437H-496.4v-4.031h2.179v.436h-1.658v1.274h1.568Z" transform="translate(558.167 -328.442)" fill="#161616"/>
    <path id="Trazado_21056" data-name="Trazado 21056" d="M-489.9,329.386a5.469,5.469,0,0,1,1-.083,1.65,1.65,0,0,1,1.167.329,1,1,0,0,1,.317.765,1.058,1.058,0,0,1-.761,1.028v.018a1,1,0,0,1,.593.813,6.428,6.428,0,0,0,.312,1.106h-.539a5.191,5.191,0,0,1-.269-.963c-.12-.556-.335-.766-.808-.783h-.491v1.746h-.521Zm.521,1.836h.532c.557,0,.91-.305.91-.766,0-.52-.377-.748-.928-.753a2.134,2.134,0,0,0-.515.048Z" transform="translate(554.617 -328.406)" fill="#161616"/>
    <path id="Trazado_21057" data-name="Trazado 21057" d="M-479.6,331.263a1.889,1.889,0,0,1-1.874,2.123,1.849,1.849,0,0,1-1.814-2.045,1.915,1.915,0,0,1,1.874-2.117A1.836,1.836,0,0,1-479.6,331.263Zm-3.131.066c0,.861.467,1.632,1.287,1.632s1.293-.76,1.293-1.675c0-.8-.419-1.638-1.287-1.638S-482.728,330.444-482.728,331.329Z" transform="translate(551.002 -328.363)" fill="#161616"/>
    <path id="Trazado_21058" data-name="Trazado 21058" d="M-470.574,332.131l-.419,1.268h-.539l1.371-4.031h.628l1.377,4.031h-.557l-.431-1.268Zm1.323-.406-.4-1.16c-.09-.263-.15-.5-.21-.735h-.012c-.06.239-.126.484-.2.729l-.4,1.166Z" transform="translate(544.58 -328.442)" fill="#161616"/>
    <path id="Trazado_21059" data-name="Trazado 21059" d="M-460.294,332.686a1.85,1.85,0,0,0,.934.263c.533,0,.844-.281.844-.688,0-.377-.215-.592-.76-.8-.659-.233-1.065-.574-1.065-1.142a1.161,1.161,0,0,1,1.3-1.094,1.838,1.838,0,0,1,.892.2l-.144.425a1.612,1.612,0,0,0-.767-.191c-.551,0-.76.329-.76.6,0,.376.245.562.8.777.682.263,1.03.592,1.03,1.184,0,.622-.461,1.16-1.413,1.16a2.085,2.085,0,0,1-1.03-.257Z" transform="translate(538.511 -328.363)" fill="#161616"/>
    <path id="Trazado_21060" data-name="Trazado 21060" d="M-452.947,329.369V333.4h-.521v-4.031Z" transform="translate(534.709 -328.442)" fill="#161616"/>
    <path id="Trazado_21061" data-name="Trazado 21061" d="M-448.222,331.51h-1.568v1.453h1.748v.437h-2.269v-4.031h2.179v.436h-1.658v1.274h1.568Z" transform="translate(532.985 -328.442)" fill="#161616"/>
    <path id="Trazado_21062" data-name="Trazado 21062" d="M-440.544,331.629c-.03-.562-.066-1.238-.06-1.74h-.018c-.137.473-.305.975-.509,1.531l-.713,1.955h-.4l-.652-1.92c-.192-.568-.353-1.088-.467-1.567h-.012c-.012.5-.042,1.178-.078,1.782l-.108,1.729h-.5l.281-4.031h.665l.688,1.949c.168.5.306.939.407,1.358h.018c.1-.407.245-.849.425-1.358l.718-1.949h.664l.251,4.031h-.509Z" transform="translate(529.564 -328.442)" fill="#161616"/>
    <path id="Trazado_21063" data-name="Trazado 21063" d="M-433.2,329.38a6.073,6.073,0,0,1,1-.077,1.656,1.656,0,0,1,1.131.335,1.082,1.082,0,0,1,.353.843,1.186,1.186,0,0,1-.311.861,1.673,1.673,0,0,1-1.233.443,1.794,1.794,0,0,1-.419-.036v1.615h-.521Zm.521,1.944a1.746,1.746,0,0,0,.431.042c.629,0,1.012-.305,1.012-.861,0-.532-.377-.79-.952-.79a2.178,2.178,0,0,0-.491.042Z" transform="translate(523.633 -328.406)" fill="#161616"/>
    <path id="Trazado_21064" data-name="Trazado 21064" d="M-426.172,329.386a5.464,5.464,0,0,1,1-.083,1.651,1.651,0,0,1,1.167.329,1,1,0,0,1,.317.765,1.058,1.058,0,0,1-.76,1.028v.018a1,1,0,0,1,.593.813,6.4,6.4,0,0,0,.311,1.106h-.539a5.233,5.233,0,0,1-.269-.963c-.12-.556-.335-.766-.808-.783h-.491v1.746h-.521Zm.521,1.836h.533c.557,0,.91-.305.91-.766,0-.52-.377-.748-.928-.753a2.136,2.136,0,0,0-.515.048Z" transform="translate(519.794 -328.406)" fill="#161616"/>
    <path id="Trazado_21065" data-name="Trazado 21065" d="M-416.978,331.51h-1.568v1.453h1.748v.437h-2.269v-4.031h2.179v.436h-1.658v1.274h1.568Z" transform="translate(515.912 -328.442)" fill="#161616"/>
  </g>
  <path id="Trazado_21066" data-name="Trazado 21066" d="M-632.351,276.7a10.873,10.873,0,0,1,3.327-8.154,12.025,12.025,0,0,1,8.761-3.186,14.666,14.666,0,0,1,8.845,3.228l-2.864,4.63a8.207,8.207,0,0,0-5.686-2.166c-3.664,0-6.107,2.293-6.107,5.648s2.443,5.649,6.107,5.649a8.2,8.2,0,0,0,5.686-2.166l2.864,4.63a14.667,14.667,0,0,1-8.845,3.228,11.879,11.879,0,0,1-8.761-3.228A10.716,10.716,0,0,1-632.351,276.7Z" transform="translate(713.12 -243.761)" fill="#161616"/>
  <path id="Trazado_21067" data-name="Trazado 21067" d="M-581.093,276.7a10.479,10.479,0,0,1,3.538-8.154,11.908,11.908,0,0,1,8.339-3.186,12.009,12.009,0,0,1,8.381,3.186,10.711,10.711,0,0,1,3.5,8.154,10.585,10.585,0,0,1-3.5,8.154,11.86,11.86,0,0,1-8.381,3.228,11.761,11.761,0,0,1-8.339-3.228A10.479,10.479,0,0,1-581.093,276.7Zm7.834,4.248a5.484,5.484,0,0,0,4.044,1.7,5.618,5.618,0,0,0,4.085-1.741,5.727,5.727,0,0,0,1.685-4.205,5.726,5.726,0,0,0-1.685-4.2,5.574,5.574,0,0,0-4.085-1.7,5.482,5.482,0,0,0-4.044,1.7,5.764,5.764,0,0,0-1.727,4.2A5.791,5.791,0,0,0-573.259,280.949Z" transform="translate(685.111 -243.761)" fill="#161616"/>
  <path id="Trazado_21068" data-name="Trazado 21068" d="M-500.329,283.795a12.96,12.96,0,0,1-10.066,4.29c-3.875,0-6.907-1.062-9.1-3.228a10.711,10.711,0,0,1-3.285-8.027,11.039,11.039,0,0,1,3.37-8.154,11.668,11.668,0,0,1,8.55-3.313,11.559,11.559,0,0,1,8.3,3.313c2.274,2.251,3.411,5.394,3.411,9.514h-17.394c.126,2.761,2.7,4.714,6.612,4.714a8.49,8.49,0,0,0,5.981-2.591Zm-16.089-9.429h10.824c-.379-2.549-2.864-3.865-5.349-3.865C-513.343,270.5-515.744,271.69-516.418,274.366Z" transform="translate(653.246 -243.761)" fill="#161616"/>
  <path id="Trazado_21069" data-name="Trazado 21069" d="M-450.469,288.181l-5.181-6.838-5.181,6.838h-7.16v-.85l8.592-10.4-7.792-9.811v-.722h7.329l4.212,5.988,4.212-5.988h7.329v.722l-7.792,9.811,8.592,10.4v.85Z" transform="translate(623.308 -244.325)" fill="#161616"/>
</svg>
